<svg width="30" height="30" viewBox="0 0 30 30" fill="none" xmlns="http://www.w3.org/2000/svg">
<g clip-path="url(#clip0_1167_72085)">
<path d="M15.8789 18.8086H27.5977V2.63672C27.5977 1.18283 26.4148 0 24.9609 0H15.8789V18.8086ZM18.75 11.7773C19.2354 11.7773 19.6289 12.1709 19.6289 12.6562V14.0625C19.6289 14.5479 19.2354 14.9414 18.75 14.9414C18.2646 14.9414 17.8711 14.5479 17.8711 14.0625V12.6562C17.8711 12.1709 18.2646 11.7773 18.75 11.7773Z" fill="white"/>
<path d="M15.8789 20.5664V28.0664H21.6211V29.1211C21.6211 29.6065 22.0146 30 22.5 30C22.9854 30 23.3789 29.6065 23.3789 29.1211V28.0664H24.9609C26.4148 28.0664 27.5977 26.8836 27.5977 25.4297V20.5664H15.8789ZM21.5625 24.375H20.1562C19.6709 24.375 19.2773 23.9815 19.2773 23.4961C19.2773 23.0107 19.6709 22.6172 20.1562 22.6172H21.5625C22.0479 22.6172 22.4414 23.0107 22.4414 23.4961C22.4414 23.9815 22.0479 24.375 21.5625 24.375Z" fill="white"/>
<path d="M14.1211 0H5.03906C3.58518 0 2.40234 1.18283 2.40234 2.63672V25.4297C2.40234 26.8836 3.58518 28.0664 5.03906 28.0664H6.62109V29.1211C6.62109 29.6065 7.01461 30 7.5 30C7.98539 30 8.37891 29.6065 8.37891 29.1211V28.0664H14.1211V0ZM11.25 14.9414C10.7646 14.9414 10.3711 14.5479 10.3711 14.0625V12.6562C10.3711 12.1709 10.7646 11.7773 11.25 11.7773C11.7354 11.7773 12.1289 12.1709 12.1289 12.6562V14.0625C12.1289 14.5479 11.7354 14.9414 11.25 14.9414Z" fill="white"/>
</g>
<defs>
<clipPath id="clip0_1167_72085">
<rect width="30" height="30" fill="white"/>
</clipPath>
</defs>
</svg>
