<svg width="30" height="30" viewBox="0 0 30 30" fill="none" xmlns="http://www.w3.org/2000/svg">
<path fill-rule="evenodd" clip-rule="evenodd" d="M26.25 13.75C26.2499 13.2271 26.1404 12.7099 25.9286 12.2318C25.7167 11.7537 25.4073 11.3252 25.02 10.9738C25.6488 9.30002 25.2925 7.25877 23.7938 6.04627C23.1657 5.5378 22.406 5.21836 21.6032 5.12519C20.8005 5.03202 19.9879 5.16895 19.26 5.52002C18.8967 5.0365 18.4316 4.63877 17.8975 4.35502C16.8687 3.80627 15.6437 3.68002 14.4712 3.91002C13.7493 4.05072 13.0703 4.35847 12.4885 4.80865C11.9068 5.25882 11.4386 5.83892 11.1213 6.50252C11.0079 6.43673 10.8919 6.37544 10.7738 6.31877C9.69875 5.81002 8.41 5.74127 7.13125 6.38502C5.37375 7.27002 4.46875 9.32627 4.82625 11.1975C4.62458 11.3783 4.44625 11.5863 4.29125 11.8213C3.91625 12.3963 3.75 13.06 3.75 13.75C3.75 14.0805 3.88083 14.3975 4.1139 14.6317C4.34697 14.8659 4.66331 14.9984 4.99375 15H25.0062C25.3367 14.9984 25.653 14.8659 25.8861 14.6317C26.1192 14.3975 26.25 14.0805 26.25 13.75ZM17.6375 12.7938C17.4997 12.4923 17.2478 12.2578 16.9372 12.142C16.6266 12.0262 16.2828 12.0385 15.9812 12.1763C15.6796 12.314 15.3355 12.3263 15.0248 12.2104C14.7141 12.0944 14.4621 11.8598 14.3244 11.5581C14.1866 11.2565 14.1744 10.9124 14.2903 10.6017C14.4062 10.291 14.6408 10.039 14.9425 9.90127C15.8472 9.48819 16.879 9.45144 17.8108 9.79908C18.7426 10.1467 19.4982 10.8503 19.9112 11.755C20.0488 12.0567 20.0609 12.4007 19.9449 12.7113C19.8289 13.0219 19.5942 13.2737 19.2925 13.4113C18.9908 13.5488 18.6468 13.561 18.3362 13.4449C18.0256 13.3289 17.7738 13.0942 17.6363 12.7925" fill="#FDD00A"/>
<path d="M25.4499 19.0299C25.8024 18.2861 25.2049 17.4999 24.3824 17.4999H5.61743C4.79493 17.4999 4.19743 18.2874 4.55118 19.0299C5.61743 21.2736 7.57243 23.0699 9.97118 24.1199V24.9999C9.97118 25.3314 10.1029 25.6493 10.3373 25.8838C10.5717 26.1182 10.8897 26.2499 11.2212 26.2499H18.7787C19.1102 26.2499 19.4281 26.1182 19.6626 25.8838C19.897 25.6493 20.0287 25.3314 20.0287 24.9999V24.1199C22.4262 23.0699 24.3824 21.2736 25.4487 19.0299" fill="#FDD00A"/>
</svg>
