<svg width="30" height="30" viewBox="0 0 30 30" fill="none" xmlns="http://www.w3.org/2000/svg">
<path d="M14.9987 6.74986C14.7148 6.74967 14.4367 6.83005 14.1966 6.98166C13.9566 7.13328 13.7645 7.34991 13.6427 7.60636C13.5808 7.74228 13.4924 7.86451 13.3828 7.96592C13.2731 8.06733 13.1444 8.14589 13.0041 8.19702C12.8637 8.24815 12.7146 8.27083 12.5654 8.26372C12.4162 8.25662 12.27 8.21988 12.1351 8.15564C12.0003 8.09141 11.8796 8.00097 11.7801 7.8896C11.6805 7.77823 11.6042 7.64816 11.5555 7.50697C11.5068 7.36578 11.4866 7.2163 11.4963 7.06726C11.5059 6.91821 11.5452 6.77258 11.6117 6.63886C11.8574 6.12348 12.2175 5.67101 12.6646 5.31594C13.1118 4.96087 13.634 4.71258 14.1917 4.59C14.7493 4.46743 15.3276 4.4738 15.8824 4.60864C16.4372 4.74348 16.9539 5.00322 17.393 5.36806C17.8322 5.7329 18.1823 6.1932 18.4165 6.71388C18.6508 7.23455 18.7631 7.80184 18.7448 8.3725C18.7266 8.94315 18.5783 9.5021 18.3112 10.0067C18.0441 10.5114 17.6653 10.9483 17.2037 11.2844C16.8542 11.5379 16.5632 11.7794 16.3637 12.0239C16.1657 12.2609 16.1237 12.4199 16.1237 12.5234C16.1237 12.7154 16.2287 12.8909 16.3952 12.9824L26.1872 18.3524C26.773 18.6735 27.2353 19.1805 27.5011 19.7933C27.767 20.4062 27.8214 21.0901 27.6557 21.7372C27.49 22.3844 27.1136 22.958 26.5859 23.3677C26.0583 23.7773 25.4093 23.9998 24.7412 23.9999H5.25622C4.58731 24.0007 3.93725 23.7783 3.40906 23.3678C2.88086 22.9574 2.50474 22.3824 2.34028 21.7341C2.17581 21.0857 2.23242 20.401 2.50113 19.7884C2.76985 19.1758 3.23529 18.6705 3.82372 18.3524L11.8397 14.0114C11.9698 13.9386 12.1131 13.8924 12.2612 13.8754C12.4092 13.8584 12.5592 13.8711 12.7024 13.9126C12.8456 13.9541 12.9791 14.0237 13.0951 14.1172C13.2112 14.2108 13.3075 14.3265 13.3784 14.4575C13.4494 14.5886 13.4936 14.7325 13.5085 14.8808C13.5234 15.0292 13.5086 15.179 13.4651 15.3215C13.4216 15.4641 13.3502 15.5966 13.255 15.7113C13.1598 15.8261 13.0428 15.9207 12.9107 15.9899L4.89622 20.3309C4.74802 20.4106 4.63072 20.5375 4.56296 20.6915C4.49519 20.8456 4.48086 21.0178 4.52224 21.1809C4.56362 21.344 4.65833 21.4886 4.79132 21.5917C4.92431 21.6948 5.08795 21.7505 5.25622 21.7499H24.7412C24.9099 21.75 25.0737 21.6939 25.207 21.5905C25.3402 21.4871 25.4352 21.3423 25.477 21.179C25.5188 21.0156 25.505 20.8429 25.4377 20.6883C25.3705 20.5336 25.2537 20.4058 25.1057 20.3249L15.3152 14.9549C14.8796 14.7158 14.5162 14.3642 14.2629 13.9368C14.0096 13.5093 13.8757 13.0217 13.8752 12.5249C13.8752 11.7179 14.2352 11.0684 14.6267 10.5929C15.0137 10.1234 15.4937 9.74686 15.8807 9.46486C16.1375 9.27893 16.3288 9.01641 16.4271 8.71498C16.5255 8.41355 16.5257 8.08872 16.4279 7.78713C16.3301 7.48553 16.1392 7.22269 15.8827 7.03633C15.6262 6.84997 15.3173 6.74968 15.0002 6.74986" fill="#FDD00A"/>
</svg>
