<svg width="45" height="45" viewBox="0 0 45 45" fill="none" xmlns="http://www.w3.org/2000/svg">
<path d="M9.43647 24.8895H4.20972V30.1163H9.43647V24.8895Z" fill="#E9B443"/>
<path d="M14.5981 30.0488H9.37134V35.2755H14.5981V30.0488Z" fill="#E9B443"/>
<path d="M19.8249 35.2755H14.5981V40.5022H19.8249V35.2755Z" fill="#E9B443"/>
<path d="M19.8249 24.8895H14.5981V30.1163H19.8249V24.8895Z" fill="#605F5F"/>
<path d="M35.5635 30.114H40.7903V24.8872H35.5635V30.114Z" fill="#E9B443"/>
<path d="M30.4019 35.2755H35.6287V30.0487H30.4019V35.2755Z" fill="#E9B443"/>
<path d="M25.1751 40.5H30.4019V35.2733H25.1751V40.5Z" fill="#E9B443"/>
<path d="M25.1751 30.114H30.4019V24.8872H25.1751V30.114Z" fill="#605F5F"/>
<path d="M9.43647 14.886H4.20972V20.1128H9.43647V14.886Z" fill="#E9B443"/>
<path d="M14.5981 9.7245H9.37134V14.9513H14.5981V9.7245Z" fill="#E9B443"/>
<path d="M19.8249 4.5H14.5981V9.72675H19.8249V4.5Z" fill="#E9B443"/>
<path d="M19.8249 14.886H14.5981V20.1128H19.8249V14.886Z" fill="#605F5F"/>
<path d="M35.5635 20.1105H40.7903V14.8837H35.5635V20.1105Z" fill="#E9B443"/>
<path d="M30.4019 14.9512H35.6287V9.7245H30.4019V14.9512Z" fill="#E9B443"/>
<path d="M25.1753 9.72449H30.4021V4.49774L25.1753 4.49774V9.72449Z" fill="#E9B443"/>
<path d="M25.1753 20.1105H30.4021V14.8837H25.1753V20.1105Z" fill="#605F5F"/>
</svg>
