<svg width="64" height="64" viewBox="0 0 64 64" fill="none" xmlns="http://www.w3.org/2000/svg">
<path d="M59.2111 35.8254C61.855 35.8254 63.9984 33.7387 63.9984 31.1646C63.9984 28.5906 61.855 26.5039 59.2111 26.5039C56.5672 26.5039 54.4238 28.5906 54.4238 31.1646C54.4238 33.7387 56.5672 35.8254 59.2111 35.8254Z" fill="url(#paint0_linear_1239_32327)"/>
<path d="M4.78728 35.8254C7.43122 35.8254 9.57455 33.7387 9.57455 31.1646C9.57455 28.5906 7.43122 26.5039 4.78728 26.5039C2.14334 26.5039 0 28.5906 0 31.1646C0 33.7387 2.14334 35.8254 4.78728 35.8254Z" fill="url(#paint1_linear_1239_32327)"/>
<path d="M36.9592 9.32145C39.6031 9.32145 41.7464 7.23478 41.7464 4.66073C41.7464 2.08668 39.6031 0 36.9592 0C34.3152 0 32.1719 2.08668 32.1719 4.66073C32.1719 7.23478 34.3152 9.32145 36.9592 9.32145Z" fill="#0A33FF"/>
<path d="M36.9592 61.5324C39.6031 61.5324 41.7464 59.4457 41.7464 56.8717C41.7464 54.2976 39.6031 52.2109 36.9592 52.2109C34.3152 52.2109 32.1719 54.2976 32.1719 56.8717C32.1719 59.4457 34.3152 61.5324 36.9592 61.5324Z" fill="#0A33FF"/>
<path d="M62.9906 12.4517L20.0988 61.7993C17.6849 64.5747 13.3525 64.7501 10.7134 62.1808L2.47188 54.1571C-0.167201 51.5878 0.0129412 47.3655 2.86369 45.0198L53.5512 3.26181C55.0734 2.00784 57.3252 2.09992 58.7348 3.47227L62.779 7.40955C64.1886 8.7819 64.2832 10.9742 62.9951 12.4561L62.9906 12.4517Z" fill="url(#paint2_linear_1239_32327)"/>
<path d="M48.9855 54.333L7.4807 21.2695C4.55789 18.9413 4.33721 14.6664 7.00782 12.0664L15.0872 4.2006C17.7578 1.60059 22.1488 1.81543 24.5402 4.66097L58.5015 45.0686C59.7489 46.5505 59.6364 48.7121 58.2448 50.0669L54.1195 54.0831C52.7279 55.4379 50.5077 55.5475 48.9855 54.333Z" fill="#0A33FF"/>
<path d="M46.764 31.1159L35.7483 43.7959L19.7832 31.0764L35.7078 17.958L46.764 31.1159Z" fill="url(#paint3_linear_1239_32327)"/>
<defs>
<linearGradient id="paint0_linear_1239_32327" x1="54.4238" y1="31.1646" x2="63.9984" y2="31.1646" gradientUnits="userSpaceOnUse">
<stop stop-color="#FFD60A"/>
<stop offset="1" stop-color="#F5BE09"/>
</linearGradient>
<linearGradient id="paint1_linear_1239_32327" x1="0" y1="-22.5894" x2="9.57455" y2="-22.5894" gradientUnits="userSpaceOnUse">
<stop stop-color="#FFD60A"/>
<stop offset="1" stop-color="#F5BE09"/>
</linearGradient>
<linearGradient id="paint2_linear_1239_32327" x1="0.602907" y1="33.1904" x2="63.9004" y2="33.1904" gradientUnits="userSpaceOnUse">
<stop stop-color="#FFD60A"/>
<stop offset="1" stop-color="#F5BE09"/>
</linearGradient>
<linearGradient id="paint3_linear_1239_32327" x1="19.7832" y1="30.8748" x2="46.764" y2="30.8748" gradientUnits="userSpaceOnUse">
<stop stop-color="#051A80"/>
<stop offset="1" stop-color="#0A33FF"/>
</linearGradient>
</defs>
</svg>
