<svg width="165" height="242" viewBox="0 0 165 242" fill="none" xmlns="http://www.w3.org/2000/svg">
<path d="M147.552 87.9699C153.872 87.9699 158.996 82.8461 158.996 76.5255C158.996 70.2049 153.872 65.0811 147.552 65.0811C141.231 65.0811 136.107 70.2049 136.107 76.5255C136.107 82.8461 141.231 87.9699 147.552 87.9699Z" fill="url(#paint0_linear_874_28586)"/>
<path d="M17.4444 87.9699C23.765 87.9699 28.8889 82.8461 28.8889 76.5255C28.8889 70.2049 23.765 65.0811 17.4444 65.0811C11.1239 65.0811 6 70.2049 6 76.5255C6 82.8461 11.1239 87.9699 17.4444 87.9699Z" fill="url(#paint1_linear_874_28586)"/>
<path d="M94.3566 22.8889C100.677 22.8889 105.801 17.765 105.801 11.4445C105.801 5.12386 100.677 0 94.3566 0C88.036 0 82.9121 5.12386 82.9121 11.4445C82.9121 17.765 88.036 22.8889 94.3566 22.8889Z" fill="#0A33FF"/>
<path d="M94.3566 151.094C100.677 151.094 105.801 145.97 105.801 139.65C105.801 133.329 100.677 128.205 94.3566 128.205C88.036 128.205 82.9121 133.329 82.9121 139.65C82.9121 145.97 88.036 151.094 94.3566 151.094Z" fill="#0A33FF"/>
<path d="M156.588 30.5757L54.0507 151.749C48.28 158.564 37.9229 158.995 31.6139 152.686L11.9118 132.984C5.60284 126.675 6.03349 116.307 12.8485 110.547L134.022 8.00978C137.661 4.93065 143.044 5.15674 146.414 8.52656L156.082 18.1946C159.452 21.5644 159.678 26.9475 156.599 30.5865L156.588 30.5757Z" fill="url(#paint2_linear_874_28586)"/>
<path d="M123.105 133.415L23.884 52.2268C16.8967 46.51 16.3692 36.013 22.7535 29.6286L42.0681 10.3141C48.4524 3.92974 58.9494 4.45729 64.6663 11.4445L145.854 110.666C148.836 114.305 148.567 119.612 145.24 122.939L135.379 132.801C132.052 136.128 126.744 136.397 123.105 133.415Z" fill="#0A33FF"/>
<path d="M117.795 76.406L91.461 107.542L53.2949 76.3091L91.3641 44.0967L117.795 76.406Z" fill="url(#paint3_linear_874_28586)"/>
<path d="M7.95586 217.152H1.85653V187.249H7.95586V217.152ZM2.5435 228.334L0.722176 222.701L7.62627 220.329C9.48995 219.694 10.7183 218.042 10.7183 216.051V200.379H16.8176V215.416C16.8176 220.244 13.768 224.565 9.23581 226.047L2.5435 228.334ZM19.355 208.893V187.206H25.4967V208.766C25.4967 209.443 26.005 209.952 26.6827 209.952H28.4617C28.8005 209.952 29.0546 210.248 29.0546 210.587V216.559C29.0546 216.941 28.8429 217.152 28.4617 217.152H27.6145C23.04 217.152 19.355 213.467 19.355 208.893ZM27.0166 210.545C27.0166 210.248 27.2707 209.952 27.6096 209.952H55.7766C56.0731 209.952 56.539 209.74 56.539 209.189V206.013C56.539 205.462 56.0731 205.038 55.5648 205.038H33.5395L29.1767 200.845L42.6884 184.961L47.0935 189.028L39.2152 198.346H54.8447C59.1227 198.346 62.6383 201.819 62.6383 206.182V209.316C62.6383 213.891 58.7415 217.152 54.5906 217.152H27.6096C27.3131 217.152 27.0166 216.856 27.0166 216.559V210.545ZM67.2763 216.729V204.7H73.418V215.882C73.418 218.084 75.2393 219.863 77.4419 219.863H85.7437C87.2262 219.863 88.3698 218.889 88.3698 217.406V217.152H79.8138V209.952H96.0363C96.4176 209.952 96.6293 210.164 96.6293 210.545V216.517C96.6293 216.856 96.3752 217.152 96.0363 217.152H94.3421C94.4268 217.237 94.4692 217.449 94.4692 217.788V217.915C94.4692 223.167 90.1912 227.064 84.8966 227.064H77.6537C71.9355 227.064 67.2763 222.489 67.2763 216.729ZM94.5866 210.629C94.5866 210.291 94.8831 209.952 95.1796 209.952H103.736C105.896 209.952 108.225 209.359 109.623 207.665L110.979 205.716C111.106 205.547 111.19 205.42 111.233 205.335L111.317 205.25L103.227 202.878C103.185 202.878 103.143 202.878 103.1 202.878C102.931 202.878 102.804 202.963 102.719 203.175L101.11 207.749L95.8573 206.394L97.128 202.116C97.7634 200.083 99.1188 198.6 100.728 197.838C102.338 197.075 103.481 197.118 103.947 197.118C104.583 197.118 105.218 197.245 105.811 197.414L122.923 202.539L121.314 208.215L118.222 207.326C117.84 207.199 117.544 207.156 117.332 207.156C117.163 207.156 116.824 207.199 116.527 207.326V208.766C116.527 209.401 117.036 209.952 117.713 209.952H124.194C124.49 209.952 124.787 210.164 124.787 210.545V216.559C124.787 216.856 124.533 217.152 124.194 217.152H119.958C116.57 217.152 114.028 215.289 112.673 212.408L111.995 213.298C109.454 216.009 105.726 217.11 101.999 217.152H95.1796C94.8408 217.152 94.5866 216.856 94.5866 216.559V210.629ZM106.997 227.953V222.235H112.503V227.953H106.997ZM122.905 216.941C122.778 216.813 122.735 216.686 122.735 216.559V210.629C122.735 210.291 122.99 209.952 123.328 209.952H133.07C133.748 209.952 134.256 209.401 134.256 208.766V199.066H140.356V208.723C140.356 213.383 136.586 217.152 131.927 217.152H123.328C123.159 217.152 123.032 217.068 122.905 216.941ZM124.345 227.953V222.235H135.358V227.953H124.345ZM142.458 204.318H147.541V209.274C147.541 209.74 147.795 209.952 148.261 209.952H155.335C157.029 209.952 157.41 208.85 157.41 208.215C157.41 207.834 157.283 207.453 157.029 206.987L151.523 197.033L156.732 193.687L162.493 203.979C163.171 205.25 163.552 206.563 163.552 208.046C163.552 208.13 163.509 208.554 163.509 209.359C163.467 210.164 163.128 211.222 162.451 212.535C161.095 215.162 158.596 217.152 155.419 217.152H148.939C145.381 217.152 142.458 214.23 142.458 210.672V204.318Z" fill="#0A33FF"/>
<defs>
<linearGradient id="paint0_linear_874_28586" x1="136.107" y1="76.5255" x2="158.996" y2="76.5255" gradientUnits="userSpaceOnUse">
<stop stop-color="#FFD60A"/>
<stop offset="1" stop-color="#F5BE09"/>
</linearGradient>
<linearGradient id="paint1_linear_874_28586" x1="6" y1="-55.4678" x2="28.8889" y2="-55.4678" gradientUnits="userSpaceOnUse">
<stop stop-color="#FFD60A"/>
<stop offset="1" stop-color="#F5BE09"/>
</linearGradient>
<linearGradient id="paint2_linear_874_28586" x1="7.44386" y1="81.4997" x2="158.763" y2="81.4997" gradientUnits="userSpaceOnUse">
<stop stop-color="#FFD60A"/>
<stop offset="1" stop-color="#F5BE09"/>
</linearGradient>
<linearGradient id="paint3_linear_874_28586" x1="53.2949" y1="75.8138" x2="117.795" y2="75.8138" gradientUnits="userSpaceOnUse">
<stop stop-color="#051A80"/>
<stop offset="1" stop-color="#0A33FF"/>
</linearGradient>
</defs>
</svg>
