<svg width="141" height="45" viewBox="0 0 141 45" fill="none" xmlns="http://www.w3.org/2000/svg">
<path d="M1.87734 27.5C1.66934 19.468 1.41334 13.116 1.10934 8.44401L4.92534 7.96401C5.22934 14.46 5.38134 20.748 5.38134 26.828L1.87734 27.5ZM3.93572 29.54C5.75972 28.852 7.05572 28.124 7.82372 27.356C8.59172 26.572 8.94372 25.572 8.87972 24.356C8.83172 23.588 8.72772 22.78 8.56772 21.932C8.40772 21.084 8.14372 19.94 7.77572 18.5L11.4957 17.18C12.1517 19.772 12.4797 22.332 12.4797 24.86C12.4797 26.252 12.3117 27.452 11.9757 28.46C11.6557 29.468 10.9677 30.412 9.91172 31.292C8.87172 32.188 7.31972 32.964 5.25572 33.62L3.93572 29.54ZM19.5923 27.5C17.7363 27.5 16.4243 27.004 15.6563 26.012C14.9043 25.004 14.5203 23.868 14.5043 22.604L14.3603 8.44401L18.1043 7.96401V21.212C18.1043 21.676 18.1843 22.028 18.3443 22.268C18.5203 22.492 18.8803 22.604 19.4243 22.604H19.8323C20.2163 22.844 20.5203 23.188 20.7443 23.636C20.9683 24.068 21.0803 24.54 21.0803 25.052C21.0803 25.564 20.9683 26.052 20.7443 26.516C20.5203 26.964 20.2163 27.292 19.8323 27.5H19.5923ZM19.312 22.58H21.688C24.136 22.58 26.04 22.412 27.4 22.076L27.424 21.14C27.424 20.612 27.392 20.196 27.328 19.892C27.264 19.588 27.088 19.3 26.8 19.028C26.512 18.74 26.04 18.476 25.384 18.236L19.312 16.028C19.456 15.068 19.576 14.34 19.672 13.844C19.784 13.332 20.04 12.756 20.44 12.116C20.84 11.46 21.424 11.004 22.192 10.748L30.784 7.79601V11.732L24.16 13.796L26.992 14.876C29.52 15.836 30.784 17.612 30.784 20.204V20.876C30.784 22.38 30.56 23.612 30.112 24.572C29.664 25.516 28.864 26.244 27.712 26.756C26.576 27.252 24.984 27.5 22.936 27.5H19.312V22.58ZM40.9428 33.884C39.2628 33.884 37.9268 33.66 36.9348 33.212C35.9428 32.764 35.2228 32.1 34.7748 31.22C34.3428 30.356 34.1268 29.236 34.1268 27.86C34.1268 26.996 34.2148 25.972 34.3908 24.788L34.7988 21.836L38.1588 22.34L37.9668 23.9L37.8948 24.524C37.7828 25.468 37.7268 26.156 37.7268 26.588C37.7268 27.212 37.8308 27.692 38.0388 28.028C38.2468 28.364 38.6068 28.604 39.1188 28.748C39.6308 28.892 40.3828 28.964 41.3748 28.964C42.4468 28.964 43.4068 28.892 44.2548 28.748C45.1188 28.62 45.7908 28.452 46.2708 28.244C46.7508 28.036 46.9908 27.836 46.9908 27.644C46.9908 27.532 46.9108 27.444 46.7508 27.38C46.6068 27.316 46.3108 27.26 45.8628 27.212C43.9108 27.004 42.5828 26.82 41.8788 26.66L42.5268 22.316C43.7908 22.444 44.8788 22.524 45.7908 22.556C46.7188 22.588 48.0068 22.604 49.6548 22.604H51.1908H51.2628C51.6468 22.844 51.9508 23.188 52.1748 23.636C52.3988 24.068 52.5108 24.54 52.5108 25.052C52.5108 25.564 52.3988 26.052 52.1748 26.516C51.9508 26.964 51.6468 27.292 51.2628 27.5H50.4948L50.5188 27.788C50.5188 29.084 50.0788 30.188 49.1988 31.1C48.3348 32.028 47.1748 32.724 45.7188 33.188C44.2628 33.652 42.6708 33.884 40.9428 33.884ZM65.2274 27.5C63.9314 27.5 62.8274 27.34 61.9154 27.02C61.0194 26.684 60.2834 26.26 59.7074 25.748C58.9874 26.292 58.1314 26.724 57.1394 27.044C56.1474 27.348 54.8674 27.5 53.2994 27.5H50.7314V22.604H52.8914C54.2354 22.604 55.3394 22.524 56.2034 22.364C57.0834 22.188 57.7714 21.972 58.2674 21.716C58.7794 21.444 59.2994 21.108 59.8274 20.708L58.5794 20.036C57.7634 19.588 57.1714 19.292 56.8034 19.148C56.4514 19.004 56.0914 18.932 55.7234 18.932C55.3714 18.932 55.0754 19.012 54.8354 19.172C54.5954 19.332 54.3794 19.612 54.1874 20.012L53.7314 20.972L51.3074 19.892L51.8834 18.524C52.2354 17.692 52.5714 17.028 52.8914 16.532C53.2274 16.036 53.6354 15.66 54.1154 15.404C54.5954 15.148 55.1954 15.02 55.9154 15.02C56.4434 15.02 57.0194 15.148 57.6434 15.404C58.2674 15.66 59.0034 16.036 59.8514 16.532L60.8114 17.108C61.8034 17.7 62.6434 18.148 63.3314 18.452C64.0354 18.74 64.8274 18.892 65.7074 18.908L65.1314 22.604H66.3554C66.7394 22.844 67.0434 23.188 67.2674 23.636C67.4914 24.068 67.6034 24.54 67.6034 25.052C67.6034 25.564 67.4914 26.052 67.2674 26.516C67.0434 26.964 66.7394 27.292 66.3554 27.5H65.2274ZM55.6274 29.708H59.0114V33.092H55.6274V29.708ZM65.8139 22.604C67.1739 22.604 68.2939 22.508 69.1739 22.316C69.0299 20.652 68.6299 19.012 67.9739 17.396L71.5259 15.74C71.9739 16.732 72.2859 17.708 72.4619 18.668C72.6539 19.628 72.7579 20.308 72.7739 20.708C72.7899 21.108 72.7979 21.668 72.7979 22.388C72.7979 24.164 72.1819 25.46 70.9499 26.276C69.7339 27.092 68.0219 27.5 65.8139 27.5V22.604ZM66.0299 29.708H73.4939V32.828H69.8699C68.5739 32.828 67.6299 32.812 67.0379 32.78C66.4459 32.764 65.9819 32.716 65.6459 32.636L66.0299 29.708ZM79.2524 27.524C78.3884 27.524 77.5084 27.476 76.6124 27.38C75.7164 27.268 74.9804 27.124 74.4044 26.948L75.0764 22.844C75.6044 22.988 76.2044 23.108 76.8764 23.204C77.5644 23.284 78.2044 23.324 78.7964 23.324C80.2044 23.324 81.3484 23.164 82.2284 22.844C82.1964 22.268 82.0524 21.78 81.7964 21.38C81.5564 20.98 81.0524 20.476 80.2844 19.868L77.0924 17.324L79.4204 14.036L82.9724 16.988C83.9644 17.82 84.6844 18.668 85.1324 19.532C85.5804 20.396 85.8044 21.324 85.8044 22.316V23.372C85.8044 24.236 85.5084 24.98 84.9164 25.604C84.3404 26.228 83.5564 26.708 82.5644 27.044C81.5724 27.364 80.4684 27.524 79.2524 27.524Z" fill="#4A4A4A"/>
<path d="M137.533 25.19C139.343 25.19 140.81 23.7228 140.81 21.9129C140.81 20.103 139.343 18.6358 137.533 18.6358C135.724 18.6358 134.256 20.103 134.256 21.9129C134.256 23.7228 135.724 25.19 137.533 25.19Z" fill="url(#paint0_linear_1107_39439)"/>
<path d="M100.277 25.19C102.087 25.19 103.554 23.7228 103.554 21.9129C103.554 20.103 102.087 18.6358 100.277 18.6358C98.4672 18.6358 97 20.103 97 21.9129C97 23.7228 98.4672 25.19 100.277 25.19Z" fill="url(#paint1_linear_1107_39439)"/>
<path d="M122.301 6.55415C124.111 6.55415 125.578 5.08695 125.578 3.27707C125.578 1.4672 124.111 0 122.301 0C120.491 0 119.024 1.4672 119.024 3.27707C119.024 5.08695 120.491 6.55415 122.301 6.55415Z" fill="#0A33FF"/>
<path d="M122.301 43.2648C124.111 43.2648 125.578 41.7976 125.578 39.9877C125.578 38.1778 124.111 36.7106 122.301 36.7106C120.491 36.7106 119.024 38.1778 119.024 39.9877C119.024 41.7976 120.491 43.2648 122.301 43.2648Z" fill="#0A33FF"/>
<path d="M140.12 8.7553L110.759 43.4528C109.106 45.4043 106.141 45.5276 104.334 43.721L98.6925 38.0794C96.886 36.2729 97.0093 33.3041 98.9608 31.6547L133.658 2.29364C134.7 1.41195 136.242 1.47669 137.207 2.44162L139.975 5.21002C140.94 6.17495 141.005 7.71638 140.123 8.75839L140.12 8.7553Z" fill="url(#paint2_linear_1107_39439)"/>
<path d="M130.532 38.2027L102.121 14.9549C100.12 13.3179 99.9687 10.3121 101.797 8.48401L107.327 2.95337C109.156 1.12524 112.161 1.2763 113.798 3.27707L137.046 31.6887C137.9 32.7307 137.823 34.2505 136.87 35.2031L134.047 38.027C133.094 38.9796 131.574 39.0567 130.532 38.2027Z" fill="#0A33FF"/>
<path d="M129.012 21.879L121.472 30.7946L110.543 21.8513L121.444 12.6274L129.012 21.879Z" fill="url(#paint3_linear_1107_39439)"/>
<defs>
<linearGradient id="paint0_linear_1107_39439" x1="134.256" y1="21.9129" x2="140.81" y2="21.9129" gradientUnits="userSpaceOnUse">
<stop stop-color="#FFD60A"/>
<stop offset="1" stop-color="#F5BE09"/>
</linearGradient>
<linearGradient id="paint1_linear_1107_39439" x1="97" y1="-15.8829" x2="103.554" y2="-15.8829" gradientUnits="userSpaceOnUse">
<stop stop-color="#FFD60A"/>
<stop offset="1" stop-color="#F5BE09"/>
</linearGradient>
<linearGradient id="paint2_linear_1107_39439" x1="97.4132" y1="23.3372" x2="140.743" y2="23.3372" gradientUnits="userSpaceOnUse">
<stop stop-color="#FFD60A"/>
<stop offset="1" stop-color="#F5BE09"/>
</linearGradient>
<linearGradient id="paint3_linear_1107_39439" x1="110.543" y1="21.7095" x2="129.012" y2="21.7095" gradientUnits="userSpaceOnUse">
<stop stop-color="#051A80"/>
<stop offset="1" stop-color="#0A33FF"/>
</linearGradient>
</defs>
</svg>
