<svg width="187" height="58" viewBox="0 0 187 58" fill="none" xmlns="http://www.w3.org/2000/svg">
<g clip-path="url(#clip0_2236_15045)">
<path d="M5.01364 33.978H1.12822V14.9287H5.01364V33.978ZM1.56584 41.1013L0.405611 37.5127L4.80368 36.0017C5.99089 35.5969 6.77337 34.5446 6.77337 33.2765V23.2931H10.6588V32.8718C10.6588 35.9477 8.71608 38.6999 5.829 39.6443L1.56584 41.1013ZM12.2752 28.7165V14.9017H16.1876V28.6356C16.1876 29.0673 16.5114 29.3911 16.9431 29.3911H18.0763C18.2922 29.3911 18.4541 29.58 18.4541 29.7958V33.6003C18.4541 33.8431 18.3191 33.978 18.0763 33.978H17.5367C14.6226 33.978 12.2752 31.6306 12.2752 28.7165ZM17.1558 29.7688C17.1558 29.58 17.3177 29.3911 17.5335 29.3911H35.4766C35.6654 29.3911 35.9622 29.2562 35.9622 28.9054V26.8818C35.9622 26.531 35.6654 26.2612 35.3416 26.2612H21.311L18.5318 23.5899L27.1391 13.4717L29.9452 16.062L24.9266 21.998H34.8829C37.6081 21.998 39.8476 24.2105 39.8476 26.9897V28.9864C39.8476 31.9004 37.3653 33.978 34.7211 33.978H17.5335C17.3446 33.978 17.1558 33.7892 17.1558 33.6003V29.7688ZM42.8022 33.7082V26.0453H46.7146V33.1686C46.7146 34.5716 47.8748 35.7049 49.2779 35.7049H54.5663C55.5107 35.7049 56.2392 35.0843 56.2392 34.1399V33.978H50.7889V29.3911H61.123C61.3658 29.3911 61.5007 29.526 61.5007 29.7688V33.5733C61.5007 33.7892 61.3388 33.978 61.123 33.978H60.0437C60.0977 34.032 60.1246 34.1669 60.1246 34.3828V34.4637C60.1246 37.8095 57.3995 40.2918 54.0267 40.2918H49.4128C45.7702 40.2918 42.8022 37.3778 42.8022 33.7082ZM60.1995 29.8228C60.1995 29.6069 60.3883 29.3911 60.5772 29.3911H66.0276C67.4037 29.3911 68.8877 29.0133 69.7781 27.9341L70.6415 26.6929C70.7225 26.585 70.7764 26.504 70.8034 26.45L70.8574 26.3961L65.7038 24.8851C65.6768 24.8851 65.6498 24.8851 65.6229 24.8851C65.5149 24.8851 65.434 24.939 65.38 25.074L64.3547 27.988L61.0089 27.1246L61.8184 24.3994C62.2231 23.1043 63.0865 22.1599 64.1119 21.6742C65.1372 21.1885 65.8657 21.2155 66.1625 21.2155C66.5672 21.2155 66.972 21.2965 67.3497 21.4044L78.2504 24.6692L77.2251 28.2848L75.2554 27.7182C75.0126 27.6373 74.8237 27.6103 74.6888 27.6103C74.5809 27.6103 74.365 27.6373 74.1762 27.7182V28.6356C74.1762 29.0403 74.4999 29.3911 74.9317 29.3911H79.0599C79.2488 29.3911 79.4377 29.526 79.4377 29.7688V33.6003C79.4377 33.7892 79.2758 33.978 79.0599 33.978H76.3617C74.2031 33.978 72.5842 32.7908 71.7208 30.956L71.2891 31.5227C69.6702 33.2495 67.2957 33.951 64.9213 33.978H60.5772C60.3614 33.978 60.1995 33.7892 60.1995 33.6003V29.8228ZM68.1052 40.8584V37.2159H71.6129V40.8584H68.1052ZM78.2389 33.8431C78.1579 33.7622 78.1309 33.6812 78.1309 33.6003V29.8228C78.1309 29.6069 78.2928 29.3911 78.5087 29.3911H84.7145C85.1463 29.3911 85.47 29.0403 85.47 28.6356V22.4567H89.3554V28.6086C89.3554 31.5766 86.954 33.978 83.986 33.978H78.5087C78.4007 33.978 78.3198 33.9241 78.2389 33.8431ZM79.1562 40.8584V37.2159H86.1716V40.8584H79.1562ZM90.6949 25.8025H93.9327V28.9594C93.9327 29.2562 94.0946 29.3911 94.3914 29.3911H98.8974C99.9767 29.3911 100.22 28.6895 100.22 28.2848C100.22 28.042 100.139 27.7991 99.9767 27.5023L96.469 21.1616L99.7878 19.03L103.457 25.5866C103.889 26.3961 104.132 27.2325 104.132 28.1769C104.132 28.2309 104.105 28.5007 104.105 29.0133C104.078 29.526 103.862 30.2005 103.43 31.037C102.567 32.7099 100.975 33.978 98.9514 33.978H94.8231C92.5566 33.978 90.6949 32.1163 90.6949 29.8498V25.8025Z" fill="#0A33FF"/>
<path d="M156.049 31.5132C157.76 31.5132 159.147 30.1424 159.147 28.4514C159.147 26.7605 157.76 25.3896 156.049 25.3896C154.339 25.3896 152.952 26.7605 152.952 28.4514C152.952 30.1424 154.339 31.5132 156.049 31.5132Z" fill="url(#paint0_linear_2236_15045)"/>
<path d="M120.837 31.5132C122.548 31.5132 123.935 30.1424 123.935 28.4514C123.935 26.7605 122.548 25.3896 120.837 25.3896C119.127 25.3896 117.74 26.7605 117.74 28.4514C117.74 30.1424 119.127 31.5132 120.837 31.5132Z" fill="url(#paint1_linear_2236_15045)"/>
<path d="M141.653 14.1016C143.363 14.1016 144.75 12.7308 144.75 11.0398C144.75 9.34883 143.363 7.97803 141.653 7.97803C139.942 7.97803 138.556 9.34883 138.556 11.0398C138.556 12.7308 139.942 14.1016 141.653 14.1016Z" fill="#0A33FF"/>
<path d="M141.653 48.4009C143.363 48.4009 144.75 47.0301 144.75 45.3391C144.75 43.6481 143.363 42.2773 141.653 42.2773C139.942 42.2773 138.556 43.6481 138.556 45.3391C138.556 47.0301 139.942 48.4009 141.653 48.4009Z" fill="#0A33FF"/>
<path d="M158.494 16.1582L130.744 48.5761C129.182 50.3993 126.379 50.5145 124.672 48.8267L119.34 43.5557C117.632 41.8678 117.749 39.0941 119.593 37.5531L152.387 10.121C153.372 9.29725 154.828 9.35774 155.74 10.2593L158.357 12.8458C159.269 13.7473 159.33 15.1875 158.497 16.161L158.494 16.1582Z" fill="url(#paint2_linear_2236_15045)"/>
<path d="M149.432 43.6709L122.58 21.9505C120.689 20.421 120.546 17.6127 122.274 15.9047L127.501 10.7374C129.229 9.02941 132.07 9.17054 133.617 11.0399L155.589 37.5848C156.396 38.5584 156.323 39.9784 155.423 40.8684L152.754 43.5068C151.854 44.3968 150.417 44.4688 149.432 43.6709Z" fill="#0A33FF"/>
<path d="M147.995 28.4192L140.868 36.7491L130.539 28.3933L140.842 19.7754L147.995 28.4192Z" fill="url(#paint3_linear_2236_15045)"/>
</g>
<defs>
<linearGradient id="paint0_linear_2236_15045" x1="152.952" y1="28.4514" x2="159.147" y2="28.4514" gradientUnits="userSpaceOnUse">
<stop stop-color="#FFD60A"/>
<stop offset="1" stop-color="#F5BE09"/>
</linearGradient>
<linearGradient id="paint1_linear_2236_15045" x1="117.74" y1="-6.86121" x2="123.935" y2="-6.86121" gradientUnits="userSpaceOnUse">
<stop stop-color="#FFD60A"/>
<stop offset="1" stop-color="#F5BE09"/>
</linearGradient>
<linearGradient id="paint2_linear_2236_15045" x1="118.13" y1="29.782" x2="159.082" y2="29.782" gradientUnits="userSpaceOnUse">
<stop stop-color="#FFD60A"/>
<stop offset="1" stop-color="#F5BE09"/>
</linearGradient>
<linearGradient id="paint3_linear_2236_15045" x1="130.539" y1="28.2608" x2="147.995" y2="28.2608" gradientUnits="userSpaceOnUse">
<stop stop-color="#051A80"/>
<stop offset="1" stop-color="#0A33FF"/>
</linearGradient>
<clipPath id="clip0_2236_15045">
<rect width="187" height="58" fill="white"/>
</clipPath>
</defs>
</svg>
