<svg width="30" height="30" viewBox="0 0 30 30" fill="none" xmlns="http://www.w3.org/2000/svg">
<path d="M18.7497 3.55894V6.07894C18.7498 6.3169 18.8179 6.54988 18.9459 6.75049C19.0738 6.95111 19.2564 7.11102 19.4722 7.21144L19.9834 7.45019C19.8759 9.20394 19.2847 10.7452 18.4284 11.8577C17.4809 13.0902 16.2584 13.7502 14.9997 13.7502C13.7409 13.7502 12.5197 13.0902 11.5722 11.8577C10.7147 10.7452 10.1247 9.20394 10.0172 7.45019L10.5297 7.21269C10.7453 7.11173 10.9276 6.95127 11.0552 6.7502C11.1828 6.54913 11.2502 6.31581 11.2497 6.07769V3.55894C11.2497 2.94769 11.6922 2.42769 12.2997 2.35894C14.0941 2.15135 15.9065 2.15135 17.7009 2.35894C18.3084 2.42769 18.7509 2.94769 18.7509 3.55894M7.62091 8.56894L3.56216 10.4627C3.1137 10.6721 2.76622 11.0503 2.59552 11.5149C2.42481 11.9795 2.44472 12.4927 2.65091 12.9427L8.24966 25.1564C8.3992 25.4827 8.63922 25.7592 8.94122 25.953C9.24323 26.1469 9.59453 26.25 9.95341 26.2502H20.0472C20.406 26.25 20.7573 26.1469 21.0594 25.953C21.3614 25.7592 21.6014 25.4827 21.7509 25.1564L27.3497 12.9439C27.5562 12.4937 27.5761 11.98 27.4051 11.5151C27.2342 11.0502 26.8862 10.6719 26.4372 10.4627L22.3784 8.56894C22.1134 10.4027 21.4209 12.0689 20.4109 13.3814C19.2697 14.8664 17.6859 15.9352 15.8509 16.1914L17.7359 18.8302C17.8495 18.9892 17.9106 19.1798 17.9106 19.3752C17.9106 19.5706 17.8495 19.7612 17.7359 19.9202L15.2547 23.3952C15.2258 23.4357 15.1876 23.4687 15.1433 23.4915C15.0991 23.5143 15.0501 23.5262 15.0003 23.5262C14.9505 23.5262 14.9015 23.5143 14.8572 23.4915C14.813 23.4687 14.7748 23.4357 14.7459 23.3952L12.2647 19.9202C12.151 19.7612 12.09 19.5706 12.09 19.3752C12.09 19.1798 12.151 18.9892 12.2647 18.8302L14.1497 16.1914C12.3159 15.9352 10.7309 14.8664 9.58966 13.3827C8.57966 12.0702 7.88716 10.4039 7.62091 8.56894Z" fill="#FDD00A"/>
</svg>
