<svg width="291" height="291" viewBox="0 0 291 291" fill="none" xmlns="http://www.w3.org/2000/svg">
<path d="M117.289 105.371C118.886 104.727 119.506 102.53 118.672 100.465C117.838 98.3996 115.867 97.2483 114.27 97.8933C112.672 98.5382 112.053 100.735 112.887 102.8C113.72 104.865 115.691 106.016 117.289 105.371Z" fill="white"/>
<path d="M116.333 105.935C114.591 105.918 112.851 104.376 112.303 102.257C112.129 101.664 112.079 101.042 112.157 100.43C112.234 99.817 112.436 99.2268 112.752 98.6959C112.967 98.3497 113.252 98.0527 113.59 97.8245C113.928 97.5964 114.31 97.4421 114.711 97.3718C116.618 97.0468 118.657 98.6789 119.259 101.009C119.433 101.601 119.484 102.223 119.407 102.836C119.33 103.448 119.128 104.039 118.813 104.57C118.552 104.993 118.185 105.341 117.749 105.58C117.312 105.82 116.822 105.942 116.324 105.935L116.333 105.935ZM113.053 102.063C113.558 104.014 115.203 105.389 116.722 105.131C117.018 105.08 117.3 104.966 117.549 104.797C117.797 104.628 118.007 104.408 118.164 104.152C118.419 103.709 118.58 103.22 118.639 102.712C118.697 102.205 118.65 101.691 118.502 101.203C117.998 99.2512 116.35 97.8767 114.818 98.1341C114.522 98.1853 114.241 98.2991 113.993 98.4681C113.744 98.637 113.535 98.8571 113.379 99.1136C113.123 99.5555 112.961 100.046 112.903 100.553C112.844 101.06 112.892 101.574 113.041 102.063L113.053 102.063Z" fill="#313131"/>
<path d="M115.379 101.637C115.309 101.636 115.241 101.616 115.181 101.579L113.84 100.768C113.757 100.712 113.699 100.627 113.678 100.53C113.656 100.433 113.673 100.332 113.724 100.246C113.776 100.161 113.858 100.099 113.954 100.073C114.049 100.047 114.152 100.059 114.239 100.106L115.581 100.917C115.654 100.961 115.71 101.027 115.742 101.106C115.773 101.185 115.778 101.272 115.755 101.354C115.732 101.436 115.683 101.508 115.615 101.559C115.547 101.61 115.464 101.637 115.379 101.637Z" fill="#313131"/>
<path d="M143.777 103.15C144.657 101.104 144.087 98.8937 142.504 98.2132C140.921 97.5328 138.925 98.6396 138.046 100.686C137.166 102.731 137.736 104.942 139.319 105.622C140.901 106.303 142.897 105.196 143.777 103.15Z" fill="white"/>
<path d="M140.266 106.201C140.091 106.2 139.916 106.182 139.743 106.15C139.343 106.07 138.964 105.907 138.631 105.671C138.298 105.436 138.019 105.133 137.81 104.782C137.507 104.244 137.318 103.649 137.255 103.034C137.192 102.42 137.255 101.799 137.442 101.21C138.099 98.8954 140.176 97.3093 142.072 97.6774C142.472 97.7573 142.85 97.9201 143.182 98.1552C143.515 98.3903 143.794 98.6925 144.003 99.0423C144.306 99.5807 144.494 100.176 144.558 100.79C144.621 101.405 144.557 102.025 144.37 102.614C143.774 104.719 142.008 106.218 140.266 106.201ZM141.527 98.4025C140.128 98.3889 138.689 99.6593 138.189 101.428C138.03 101.913 137.973 102.426 138.022 102.935C138.07 103.443 138.223 103.936 138.47 104.383C138.621 104.643 138.825 104.869 139.07 105.043C139.315 105.218 139.595 105.339 139.89 105.396C141.401 105.689 143.079 104.35 143.633 102.412C143.79 101.926 143.846 101.414 143.798 100.905C143.75 100.397 143.598 99.9042 143.352 99.4569C143.201 99.1963 142.997 98.971 142.752 98.7962C142.507 98.6214 142.227 98.5011 141.932 98.4436C141.798 98.4172 141.663 98.4034 141.527 98.4025Z" fill="#313131"/>
<path d="M139.61 139.355L128.49 150.899L116.392 139.168L116.7 102.327L139.918 102.512L139.61 139.355Z" fill="white"/>
<path d="M128.487 151.29C128.387 151.288 128.292 151.248 128.222 151.179L116.123 139.447C116.085 139.41 116.055 139.366 116.035 139.317C116.015 139.269 116.005 139.217 116.005 139.164L116.313 102.339C116.314 102.236 116.355 102.138 116.429 102.067C116.502 101.995 116.601 101.955 116.703 101.956L139.912 102.144C140.014 102.145 140.112 102.186 140.184 102.258C140.22 102.294 140.248 102.336 140.267 102.383C140.287 102.43 140.296 102.481 140.295 102.531L139.988 139.375C139.987 139.474 139.949 139.569 139.88 139.64L128.769 151.169C128.734 151.206 128.692 151.236 128.645 151.257C128.598 151.278 128.547 151.289 128.496 151.29L128.487 151.29ZM116.78 139.014L128.48 150.361L139.225 139.203L139.527 102.904L117.083 102.724L116.78 139.014Z" fill="#313131"/>
<path d="M139.892 105.505L139.756 117.954C139.756 117.954 137.186 114.298 129.999 114.637C126.194 114.82 131.72 104.101 131.72 104.101L139.892 105.505Z" fill="#313131"/>
<path d="M139.752 118.337C139.692 118.336 139.632 118.32 139.579 118.292C139.525 118.263 139.479 118.223 139.444 118.173C139.42 118.139 136.884 114.698 130.026 115.021C129.752 115.055 129.473 115.011 129.222 114.895C128.971 114.779 128.758 114.595 128.606 114.364C127.201 112.184 130.949 104.759 131.381 103.921C131.419 103.848 131.479 103.789 131.553 103.752C131.627 103.715 131.711 103.703 131.792 103.718L139.964 105.118C140.055 105.134 140.137 105.182 140.196 105.252C140.255 105.323 140.286 105.413 140.285 105.505L140.149 117.954C140.148 118.036 140.121 118.116 140.072 118.182C140.023 118.247 139.954 118.296 139.876 118.32C139.836 118.332 139.794 118.338 139.752 118.337ZM131.127 114.23C135.731 114.275 138.265 115.965 139.378 116.981L139.502 105.841L131.935 104.53C130.396 107.579 128.397 112.619 129.251 113.949C129.329 114.067 129.439 114.16 129.569 114.216C129.699 114.272 129.842 114.29 129.981 114.266C130.378 114.229 130.758 114.224 131.127 114.227L131.127 114.23Z" fill="#313131"/>
<path d="M141.123 102.038C141.11 103.72 140.765 105.383 140.109 106.933C139.453 108.482 138.498 109.887 137.299 111.067C136.099 112.247 134.68 113.179 133.12 113.811C131.561 114.442 129.892 114.76 128.21 114.747L128.166 114.746C124.776 114.708 121.538 113.326 119.164 110.905C116.79 108.484 115.473 105.22 115.501 101.83L115.55 96.7485C115.561 95.066 115.905 93.4023 116.56 91.8526C117.215 90.3028 118.169 88.8975 119.368 87.7171C120.567 86.5366 121.987 85.6042 123.547 84.9732C125.106 84.3421 126.775 84.0249 128.458 84.0396L128.495 84.0399C131.605 84.0759 134.596 85.2414 136.91 87.3193C139.225 89.3972 140.704 92.2458 141.074 95.334C141.137 95.8725 141.167 96.4144 141.163 96.9565L141.123 102.038Z" fill="white"/>
<path d="M128.206 115.134L128.166 115.133C125.403 115.107 122.719 114.209 120.497 112.568C120.43 112.502 120.39 112.415 120.383 112.322C120.376 112.228 120.402 112.136 120.458 112.061C120.514 111.986 120.595 111.934 120.686 111.914C120.777 111.894 120.873 111.908 120.955 111.953C123.046 113.5 125.572 114.345 128.173 114.369L128.216 114.369C131.514 114.396 134.688 113.111 137.038 110.798C139.389 108.484 140.725 105.332 140.752 102.034L140.801 96.9532C140.806 96.2404 140.75 95.5286 140.633 94.8254C140.617 94.7239 140.641 94.6199 140.701 94.5363C140.761 94.4528 140.852 94.3965 140.953 94.3798C141.055 94.3631 141.159 94.3875 141.242 94.4475C141.326 94.5075 141.382 94.5983 141.399 94.6998C141.521 95.4471 141.58 96.2034 141.575 96.9607L141.526 102.042C141.493 105.543 140.071 108.889 137.574 111.343C135.077 113.798 131.707 115.161 128.206 115.134Z" fill="#313131"/>
<path d="M118.547 110.617C118.492 110.617 118.437 110.604 118.387 110.581C118.336 110.557 118.291 110.523 118.255 110.482C116.202 108.067 115.087 104.995 115.114 101.826L115.163 96.7448C115.168 95.9615 115.243 95.1802 115.387 94.4104C115.406 94.3092 115.464 94.2197 115.549 94.1616C115.591 94.1329 115.639 94.1127 115.689 94.1022C115.739 94.0918 115.79 94.0912 115.84 94.1006C115.89 94.1101 115.938 94.1293 115.981 94.1572C116.023 94.185 116.06 94.2211 116.089 94.2631C116.118 94.3052 116.138 94.3526 116.148 94.4025C116.159 94.4524 116.159 94.5038 116.15 94.5539C116.012 95.2787 115.941 96.0145 115.937 96.7523L115.887 101.833C115.863 104.816 116.913 107.707 118.844 109.98C118.911 110.058 118.944 110.159 118.936 110.261C118.928 110.363 118.88 110.457 118.802 110.524C118.731 110.585 118.641 110.618 118.547 110.617Z" fill="#313131"/>
<path d="M127.144 84.482C127.041 84.4855 126.942 84.4481 126.867 84.378C126.792 84.3079 126.747 84.2109 126.744 84.1083C126.74 84.0056 126.778 83.9058 126.848 83.8308C126.918 83.7557 127.015 83.7116 127.118 83.708C127.334 83.6916 127.551 83.6751 127.768 83.6648L127.811 83.6652C128.046 83.6675 128.254 83.6541 128.461 83.6561L128.498 83.6564C128.727 83.6587 128.953 83.6608 129.179 83.6816C129.281 83.6883 129.377 83.7355 129.445 83.8128C129.513 83.8901 129.547 83.9911 129.54 84.0936C129.533 84.1961 129.486 84.2918 129.409 84.3595C129.332 84.4273 129.231 84.4615 129.128 84.4548C128.918 84.4528 128.704 84.4321 128.491 84.4301L128.454 84.4297L127.878 84.4241L127.785 84.4232L127.181 84.4669L127.144 84.482Z" fill="#313131"/>
<path d="M141.301 101.925C141.216 101.925 141.133 101.897 141.065 101.845C140.998 101.793 140.949 101.72 140.927 101.637C140.906 101.555 140.912 101.467 140.945 101.389C140.978 101.31 141.036 101.244 141.11 101.202L142.47 100.42C142.514 100.395 142.563 100.378 142.613 100.372C142.664 100.365 142.715 100.368 142.764 100.382C142.813 100.395 142.859 100.418 142.9 100.449C142.94 100.48 142.974 100.519 142.999 100.563C143.025 100.607 143.041 100.656 143.048 100.706C143.054 100.757 143.051 100.808 143.037 100.857C143.024 100.906 143.001 100.952 142.97 100.993C142.939 101.033 142.901 101.067 142.856 101.092L141.496 101.874C141.437 101.907 141.369 101.925 141.301 101.925Z" fill="#313131"/>
<path d="M129.196 104.961C128.14 104.951 127.978 104.767 127.899 104.676C127.819 104.586 127.593 104.317 127.958 98.5183C127.958 98.4653 127.969 98.4127 127.99 98.364C128.011 98.3152 128.042 98.2713 128.08 98.235C128.119 98.1986 128.165 98.1706 128.215 98.1527C128.265 98.1348 128.318 98.1274 128.371 98.1308C128.424 98.1343 128.475 98.1487 128.522 98.173C128.57 98.1973 128.611 98.2311 128.645 98.2722C128.678 98.3133 128.703 98.3609 128.718 98.412C128.732 98.463 128.736 98.5165 128.728 98.5691C128.579 100.892 128.471 103.469 128.526 104.138C129.074 104.19 129.626 104.196 130.175 104.154C130.226 104.15 130.277 104.156 130.325 104.173C130.373 104.189 130.418 104.214 130.456 104.248C130.494 104.281 130.526 104.322 130.548 104.368C130.57 104.413 130.583 104.463 130.587 104.514C130.59 104.564 130.583 104.616 130.567 104.664C130.55 104.712 130.524 104.756 130.49 104.795C130.457 104.833 130.416 104.864 130.37 104.886C130.324 104.909 130.274 104.922 130.224 104.925C129.809 104.955 129.471 104.964 129.196 104.961Z" fill="#313131"/>
<path d="M130.139 107.295C129.655 107.283 129.176 107.2 128.717 107.049C128.661 107.042 128.606 107.023 128.557 106.993C128.509 106.963 128.467 106.922 128.436 106.874C128.405 106.826 128.385 106.772 128.378 106.715C128.371 106.658 128.376 106.6 128.393 106.546C128.411 106.491 128.44 106.441 128.48 106.4C128.519 106.358 128.567 106.325 128.62 106.305C128.673 106.284 128.731 106.275 128.788 106.279C128.845 106.283 128.9 106.299 128.95 106.327C130.493 106.803 131.505 106.466 131.981 105.32C132 105.273 132.028 105.23 132.064 105.194C132.1 105.158 132.142 105.13 132.189 105.11C132.236 105.091 132.286 105.081 132.336 105.081C132.387 105.081 132.437 105.091 132.484 105.111C132.579 105.15 132.654 105.225 132.694 105.319C132.734 105.413 132.734 105.519 132.696 105.614C132.503 106.129 132.151 106.57 131.691 106.872C131.232 107.174 130.688 107.322 130.139 107.295Z" fill="#313131"/>
<path d="M134.759 99.652C134.667 99.6515 134.579 99.618 134.509 99.5577C134.44 99.4974 134.395 99.4143 134.382 99.3234C134.367 99.2335 134.024 97.2836 131.778 97.4877C131.727 97.4923 131.676 97.4869 131.628 97.4717C131.579 97.4566 131.534 97.432 131.495 97.3995C131.456 97.3669 131.424 97.327 131.4 97.282C131.377 97.2369 131.362 97.1877 131.357 97.137C131.353 97.0864 131.358 97.0353 131.373 96.9868C131.389 96.9383 131.413 96.8932 131.446 96.8541C131.478 96.8151 131.518 96.7828 131.563 96.7592C131.608 96.7356 131.658 96.721 131.708 96.7164C134.093 96.4982 135.002 98.2493 135.144 99.207C135.159 99.3067 135.135 99.4085 135.076 99.4906C135.018 99.5727 134.93 99.6286 134.83 99.6465L134.759 99.652Z" fill="#313131"/>
<path d="M121.823 99.5761C121.781 99.576 121.739 99.5683 121.7 99.5532C121.603 99.5198 121.523 99.4493 121.478 99.3571C121.433 99.265 121.427 99.1588 121.46 99.0619C121.68 98.3962 122.118 97.8239 122.703 97.4367C123.287 97.0495 123.985 96.87 124.684 96.9268C124.785 96.9383 124.877 96.989 124.941 97.068C125.005 97.1469 125.035 97.2479 125.025 97.3489C125.015 97.45 124.966 97.5431 124.888 97.6082C124.81 97.6732 124.71 97.705 124.608 97.6967C124.082 97.6594 123.558 97.7992 123.12 98.0938C122.682 98.3885 122.355 98.821 122.191 99.3227C122.164 99.398 122.114 99.4629 122.048 99.5084C121.982 99.5538 121.903 99.5775 121.823 99.5761Z" fill="#313131"/>
<path d="M122.287 105.111C121.277 105.102 120.292 104.793 119.457 104.224C118.623 103.656 117.976 102.852 117.598 101.915C117.22 100.979 117.128 99.951 117.334 98.9622C117.541 97.9735 118.036 97.0681 118.757 96.3607C119.477 95.6532 120.392 95.1754 121.384 94.9878C122.377 94.8001 123.403 94.911 124.332 95.3064C125.261 95.7018 126.053 96.364 126.606 97.2092C127.159 98.0543 127.449 99.0445 127.439 100.055C127.424 101.408 126.874 102.7 125.908 103.648C124.942 104.595 123.64 105.122 122.287 105.111ZM122.378 95.6728C121.521 95.6645 120.681 95.9104 119.964 96.3796C119.247 96.8487 118.685 97.5199 118.35 98.3083C118.014 99.0968 117.92 99.967 118.079 100.809C118.238 101.651 118.643 102.427 119.243 103.039C119.843 103.65 120.611 104.071 121.45 104.246C122.289 104.421 123.16 104.344 123.955 104.024C124.75 103.703 125.432 103.155 125.915 102.447C126.398 101.739 126.66 100.904 126.668 100.047C126.68 98.898 126.234 97.7917 125.429 96.9713C124.625 96.151 123.527 95.6839 122.378 95.6728Z" fill="#313131"/>
<path d="M134.09 104.829C133.08 104.819 132.096 104.51 131.261 103.941C130.427 103.372 129.78 102.568 129.403 101.631C129.026 100.695 128.934 99.6672 129.141 98.6786C129.348 97.6901 129.843 96.785 130.564 96.0779C131.285 95.3707 132.199 94.8932 133.192 94.7058C134.184 94.5184 135.21 94.6295 136.139 95.025C137.068 95.4205 137.859 96.0826 138.412 96.9277C138.965 97.7728 139.255 98.7629 139.245 99.7728C139.23 101.126 138.679 102.419 137.713 103.367C136.746 104.315 135.443 104.841 134.09 104.829ZM134.181 95.391C133.324 95.3827 132.484 95.6287 131.767 96.0978C131.05 96.5669 130.488 97.2381 130.153 98.0266C129.817 98.815 129.723 99.6853 129.882 100.527C130.041 101.369 130.446 102.145 131.046 102.757C131.646 103.369 132.414 103.789 133.253 103.964C134.092 104.139 134.963 104.062 135.758 103.742C136.553 103.422 137.235 102.873 137.718 102.165C138.201 101.457 138.463 100.622 138.471 99.7653C138.48 98.6179 138.033 97.5139 137.229 96.6956C136.425 95.8772 135.328 95.4114 134.181 95.4003L134.181 95.391Z" fill="#313131"/>
<path d="M130.778 101.334C131.082 101.337 131.331 101.093 131.334 100.788C131.337 100.484 131.093 100.235 130.789 100.232C130.485 100.229 130.236 100.474 130.233 100.778C130.23 101.082 130.474 101.331 130.778 101.334Z" fill="#313131"/>
<path d="M125.773 101.397C126.078 101.4 126.327 101.156 126.329 100.852C126.332 100.547 126.088 100.298 125.784 100.295C125.48 100.292 125.231 100.537 125.228 100.841C125.225 101.145 125.469 101.394 125.773 101.397Z" fill="#313131"/>
<path d="M129.415 100.173L127.051 100.15C126.949 100.149 126.851 100.107 126.779 100.034C126.707 99.9607 126.667 99.8619 126.668 99.7593C126.669 99.6567 126.711 99.5587 126.784 99.4869C126.857 99.4151 126.956 99.3753 127.059 99.3762L129.423 99.3992C129.525 99.4002 129.623 99.4419 129.695 99.5151C129.767 99.5884 129.807 99.6871 129.806 99.7897C129.805 99.8923 129.763 99.9903 129.69 100.062C129.617 100.134 129.518 100.174 129.415 100.173Z" fill="#313131"/>
<path d="M139.651 135.131C139.651 135.131 168.55 139.701 175.255 144.247C181.961 148.793 216.828 227.513 195.689 227.308L58.7027 225.98C37.5642 225.775 73.9508 147.743 80.7433 143.331C87.5358 138.919 116.384 134.906 116.384 134.906C116.384 134.906 119.176 141.754 127.927 141.838C136.678 141.923 139.651 135.131 139.651 135.131Z" fill="white"/>
<path d="M195.499 228.289L58.5122 226.961C55.3156 226.93 53.1999 225.214 52.2236 221.859C49.1806 211.406 58.1769 187.484 62.1837 177.681C68.9134 161.233 77.2286 145.642 80.3462 143.601C87.1325 139.189 114.965 135.272 116.145 135.116C116.237 135.104 116.33 135.125 116.407 135.175C116.485 135.225 116.542 135.301 116.57 135.389C116.597 135.479 119.911 142.575 128.269 142.656C136.627 142.737 139.069 135.703 139.094 135.611C139.123 135.522 139.182 135.446 139.262 135.397C139.341 135.348 139.435 135.329 139.527 135.343C140.711 135.53 168.573 139.978 175.285 144.522C178.36 146.606 186.374 162.372 192.783 178.947C196.599 188.826 205.143 212.918 201.885 223.31C200.844 226.645 198.696 228.32 195.499 228.289ZM115.93 135.912C112.772 136.364 87.0271 140.163 80.7609 144.237C78.1386 145.941 70.1549 160.227 62.8959 177.964C54.4862 198.518 50.8657 214.437 52.9592 221.631C53.8583 224.66 55.6574 226.147 58.5136 226.175L195.507 227.503C198.363 227.531 200.206 226.079 201.148 223.067C203.384 215.915 200.069 199.929 192.06 179.216C185.146 161.326 177.441 146.904 174.852 145.149C168.669 140.957 142.897 136.663 139.724 136.143C139.088 137.823 136.262 143.761 128.259 143.684C120.257 143.606 116.542 137.608 115.936 135.928L115.93 135.912Z" fill="#313131"/>
<path d="M83.9635 71.3098L38.9294 70.8733L38.3563 129.997L83.3904 130.433L83.9635 71.3098Z" fill="white"/>
<path d="M83.3837 130.82L38.3496 130.383C38.247 130.382 38.149 130.34 38.0772 130.267C38.0054 130.194 37.9656 130.095 37.9666 129.993L38.5397 70.8693C38.5398 70.8182 38.55 70.7677 38.5697 70.7206C38.5894 70.6735 38.6182 70.6307 38.6546 70.5948C38.6909 70.5589 38.7339 70.5306 38.7812 70.5114C38.8286 70.4922 38.8792 70.4826 38.9303 70.4831L83.9644 70.9197C84.0669 70.9207 84.1649 70.9624 84.2368 71.0356C84.3086 71.1089 84.3484 71.2076 84.3474 71.3102L83.7743 130.437C83.7733 130.539 83.7316 130.637 83.6583 130.709C83.5851 130.781 83.4863 130.821 83.3837 130.82ZM38.747 129.613L82.9982 130.042L83.5638 71.6926L39.3127 71.2636L38.747 129.613Z" fill="#313131"/>
<path d="M69.5597 81.9212L53.1217 81.7619C53.0192 81.7609 52.9212 81.7192 52.8493 81.6459C52.7775 81.5727 52.7377 81.4739 52.7387 81.3713C52.7397 81.2687 52.7814 81.1707 52.8546 81.0989C52.9279 81.0271 53.0267 80.9873 53.1292 80.9882L69.5671 81.1476C69.6697 81.1486 69.7677 81.1903 69.8396 81.2635C69.9114 81.3368 69.9512 81.4356 69.9502 81.5382C69.9492 81.6407 69.9075 81.7387 69.8343 81.8106C69.761 81.8824 69.6622 81.9222 69.5597 81.9212Z" fill="#313131"/>
<path d="M78.0392 90.5669L44.4733 90.2415C44.3707 90.2405 44.2727 90.1988 44.2009 90.1256C44.1291 90.0524 44.0893 89.9536 44.0902 89.851C44.0912 89.7484 44.1329 89.6504 44.2062 89.5786C44.2794 89.5067 44.3782 89.4669 44.4808 89.4679L78.0467 89.7933C78.1493 89.7943 78.2473 89.836 78.3191 89.9092C78.391 89.9825 78.4308 90.0813 78.4298 90.1839C78.4288 90.2865 78.3871 90.3844 78.3138 90.4563C78.2406 90.5281 78.1418 90.5679 78.0392 90.5669Z" fill="#313131"/>
<path d="M77.9562 99.1294L44.3903 98.804C44.2877 98.803 44.1897 98.7613 44.1179 98.688C44.046 98.6148 44.0062 98.516 44.0072 98.4134C44.0082 98.3108 44.0499 98.2128 44.1232 98.141C44.1964 98.0692 44.2952 98.0294 44.3978 98.0304L77.9637 98.3557C78.0663 98.3567 78.1643 98.3984 78.2361 98.4717C78.308 98.5449 78.3478 98.6437 78.3468 98.7463C78.3458 98.8489 78.3041 98.9469 78.2308 99.0187C78.1576 99.0906 78.0588 99.1304 77.9562 99.1294Z" fill="#313131"/>
<path d="M77.8732 107.688L44.3073 107.363C44.2047 107.362 44.1067 107.32 44.0349 107.247C43.963 107.174 43.9232 107.075 43.9242 106.973C43.9252 106.87 43.9669 106.772 44.0402 106.7C44.1134 106.628 44.2122 106.588 44.3148 106.589L77.8807 106.915C77.9833 106.916 78.0813 106.958 78.1531 107.031C78.225 107.104 78.2648 107.203 78.2638 107.305C78.2628 107.408 78.2211 107.506 78.1478 107.578C78.0746 107.65 77.9758 107.689 77.8732 107.688Z" fill="#313131"/>
<path d="M77.7875 116.539L44.2216 116.213C44.119 116.212 44.021 116.171 43.9492 116.098C43.8773 116.024 43.8375 115.925 43.8385 115.823C43.8395 115.72 43.8812 115.622 43.9545 115.55C44.0277 115.479 44.1265 115.439 44.2291 115.44L77.795 115.765C77.8976 115.766 77.9956 115.808 78.0674 115.881C78.1393 115.954 78.1791 116.053 78.1781 116.156C78.1771 116.258 78.1354 116.356 78.0621 116.428C77.9889 116.5 77.8901 116.54 77.7875 116.539Z" fill="#313131"/>
<path d="M77.7165 123.857L44.1506 123.532C44.048 123.531 43.95 123.489 43.8781 123.416C43.8063 123.343 43.7665 123.244 43.7675 123.141C43.7685 123.039 43.8102 122.941 43.8834 122.869C43.9567 122.797 44.0555 122.757 44.1581 122.758L77.724 123.084C77.8265 123.085 77.9245 123.126 77.9964 123.199C78.0682 123.273 78.108 123.371 78.107 123.474C78.106 123.577 78.0643 123.675 77.9911 123.747C77.9178 123.818 77.819 123.858 77.7165 123.857Z" fill="#313131"/>
<path d="M61.4682 68.7149C63.1464 68.7311 64.5201 67.3838 64.5364 65.7055C64.5527 64.0273 63.2053 62.6536 61.5271 62.6373C59.8488 62.621 58.4751 63.9684 58.4588 65.6466C58.4426 67.3249 59.7899 68.6986 61.4682 68.7149Z" fill="#FFA620"/>
<path d="M61.4644 69.1017C60.7869 69.0951 60.1265 68.8878 59.5668 68.5059C59.0072 68.124 58.5733 67.5848 58.3201 66.9563C58.0669 66.3279 58.0057 65.6384 58.1443 64.9752C58.2829 64.312 58.6151 63.7048 59.0988 63.2303C59.5826 62.7559 60.1961 62.4356 60.8619 62.3098C61.5277 62.1841 62.2158 62.2586 62.8392 62.524C63.4626 62.7893 63.9934 63.2336 64.3643 63.8005C64.7353 64.3675 64.9298 65.0318 64.9232 65.7093C64.9136 66.6176 64.544 67.4849 63.8955 68.1209C63.247 68.7569 62.3727 69.1097 61.4644 69.1017ZM61.5233 63.0241C60.9988 63.019 60.4846 63.1696 60.0456 63.4568C59.6067 63.7439 59.2628 64.1548 59.0574 64.6375C58.8519 65.1201 58.7942 65.6528 58.8916 66.1683C58.9889 66.6837 59.2369 67.1587 59.6042 67.5331C59.9715 67.9076 60.4416 68.1648 60.955 68.2721C61.4685 68.3794 62.0022 68.3321 62.4887 68.136C62.9753 67.94 63.3927 67.6041 63.6884 67.1708C63.984 66.7375 64.1445 66.2263 64.1496 65.7018C64.1556 64.9987 63.8825 64.3219 63.3901 63.8199C62.8978 63.318 62.2264 63.0318 61.5233 63.0241Z" fill="#313131"/>
<path d="M61.4184 73.8299C61.3158 73.8289 61.2179 73.7872 61.146 73.714C61.0742 73.6407 61.0344 73.5419 61.0354 73.4393L61.0812 68.711C61.0822 68.6084 61.1239 68.5104 61.1972 68.4386C61.2704 68.3667 61.3692 68.3269 61.4718 68.3279C61.5744 68.3289 61.6724 68.3706 61.7442 68.4439C61.816 68.5171 61.8558 68.6159 61.8548 68.7185L61.809 73.4468C61.8085 73.4976 61.798 73.5478 61.7781 73.5946C61.7582 73.6413 61.7293 73.6837 61.6931 73.7193C61.6568 73.7548 61.6139 73.7829 61.5667 73.8019C61.5196 73.8209 61.4692 73.8304 61.4184 73.8299Z" fill="#313131"/>
<path d="M50.1662 93.2613L18.9893 92.959L18.574 135.793L49.751 136.095L50.1662 93.2613Z" fill="white"/>
<path d="M49.7412 136.485L18.5704 136.183C18.5191 136.183 18.4682 136.173 18.4207 136.154C18.3733 136.134 18.3302 136.106 18.2939 136.069C18.2577 136.033 18.2291 135.99 18.2097 135.942C18.1904 135.895 18.1806 135.844 18.1811 135.792L18.5964 92.9584C18.596 92.9067 18.6061 92.8555 18.6261 92.8078C18.646 92.7601 18.6754 92.7169 18.7125 92.6808C18.7495 92.6448 18.7935 92.6166 18.8417 92.5979C18.89 92.5793 18.9415 92.5706 18.9931 92.5723L50.1639 92.8745C50.2148 92.8746 50.2652 92.8848 50.3121 92.9046C50.3591 92.9243 50.4016 92.9532 50.4373 92.9895C50.4729 93.0259 50.501 93.069 50.5198 93.1163C50.5386 93.1636 50.5479 93.2142 50.547 93.2651L50.1317 136.102C50.1307 136.205 50.089 136.303 50.0158 136.374C49.9425 136.446 49.8438 136.486 49.7412 136.485ZM18.9585 135.413L49.3619 135.708L49.7696 93.6475L19.3724 93.3528L18.9585 135.413Z" fill="#313131"/>
<path d="M41.4212 100.836L27.5734 100.702C27.4708 100.701 27.3728 100.659 27.301 100.586C27.2291 100.513 27.1893 100.414 27.1903 100.311C27.1913 100.209 27.233 100.111 27.3063 100.039C27.3795 99.967 27.4783 99.9272 27.5809 99.9282L41.4287 100.062C41.5313 100.063 41.6293 100.105 41.7011 100.178C41.773 100.252 41.8128 100.35 41.8118 100.453C41.8108 100.556 41.7691 100.654 41.6958 100.725C41.6226 100.797 41.5238 100.837 41.4212 100.836Z" fill="#313131"/>
<path d="M41.3407 109.154L27.4928 109.02C27.3902 109.019 27.2923 108.977 27.2204 108.904C27.1486 108.831 27.1088 108.732 27.1098 108.63C27.1108 108.527 27.1525 108.429 27.2257 108.357C27.299 108.285 27.3977 108.245 27.5003 108.246L41.3482 108.381C41.4508 108.382 41.5487 108.423 41.6206 108.497C41.6924 108.57 41.7322 108.669 41.7312 108.771C41.7302 108.874 41.6885 108.972 41.6153 109.044C41.542 109.116 41.4433 109.155 41.3407 109.154Z" fill="#313131"/>
<path d="M41.2601 117.457L27.4123 117.322C27.3097 117.321 27.2117 117.28 27.1399 117.206C27.068 117.133 27.0282 117.034 27.0292 116.932C27.0302 116.829 27.0719 116.731 27.1452 116.659C27.2184 116.587 27.3172 116.548 27.4198 116.549L41.2676 116.683C41.3702 116.684 41.4682 116.726 41.54 116.799C41.6119 116.872 41.6517 116.971 41.6507 117.073C41.6497 117.176 41.608 117.274 41.5347 117.346C41.4615 117.418 41.3627 117.458 41.2601 117.457Z" fill="#313131"/>
<path d="M41.1798 125.762L27.3319 125.628C27.2294 125.627 27.1314 125.585 27.0595 125.512C26.9877 125.439 26.9479 125.34 26.9489 125.238C26.9499 125.135 26.9916 125.037 27.0648 124.965C27.1381 124.893 27.2369 124.854 27.3394 124.855L41.1873 124.989C41.2899 124.99 41.3879 125.032 41.4597 125.105C41.5315 125.178 41.5713 125.277 41.5703 125.379C41.5693 125.482 41.5276 125.58 41.4544 125.652C41.3811 125.724 41.2824 125.763 41.1798 125.762Z" fill="#313131"/>
<path d="M25.4424 90.8816L16.0034 99.508L18.8907 102.667L28.3296 94.0409L25.4424 90.8816Z" fill="#21A2FF"/>
<path d="M40.2921 94.1554L49.562 102.963L52.51 99.8604L43.2401 91.0527L40.2921 94.1554Z" fill="#21A2FF"/>
<path d="M27.9421 135.149L18.6721 126.341L15.7241 129.444L24.9941 138.251L27.9421 135.149Z" fill="#21A2FF"/>
<path d="M42.7886 138.418L52.2275 129.791L49.3402 126.632L39.9013 135.259L42.7886 138.418Z" fill="#21A2FF"/>
<path d="M18.8915 103.053C18.7894 103.047 18.6937 103.001 18.6235 102.927L15.7357 99.7671C15.6669 99.691 15.6308 99.5909 15.6353 99.4884C15.6397 99.3859 15.6844 99.2893 15.7596 99.2195L25.1988 90.593C25.2752 90.5249 25.3751 90.4893 25.4774 90.4938C25.5796 90.4982 25.6761 90.5424 25.7463 90.6169L28.634 93.7768C28.7029 93.8529 28.739 93.953 28.7345 94.0555C28.7301 94.158 28.6854 94.2546 28.6102 94.3243L19.1556 102.951C19.0839 103.017 18.9894 103.054 18.8915 103.053ZM16.552 99.5305L18.9191 102.119L27.7869 94.0131L25.4197 91.4246L16.552 99.5305Z" fill="#313131"/>
<path d="M49.5609 103.351C49.4629 103.35 49.369 103.311 49.2989 103.243L40.0288 94.4349C39.9919 94.3999 39.9622 94.3579 39.9415 94.3113C39.9209 94.2648 39.9096 94.2146 39.9084 94.1637C39.9072 94.1128 39.916 94.0622 39.9344 94.0147C39.9528 93.9672 39.9803 93.9238 40.0155 93.887L42.964 90.7837C42.999 90.7472 43.041 90.7179 43.0874 90.6976C43.1338 90.6774 43.1837 90.6665 43.2344 90.6656C43.3371 90.6626 43.4368 90.7003 43.5119 90.7705L52.7789 99.5783C52.8161 99.6131 52.846 99.655 52.8669 99.7014C52.8878 99.7478 52.8994 99.7979 52.9009 99.8488C52.9024 99.8998 52.8939 99.9505 52.8758 99.9981C52.8576 100.046 52.8303 100.089 52.7953 100.126L49.8437 103.23C49.7725 103.303 49.6757 103.346 49.5733 103.351L49.5609 103.351ZM40.8425 94.1395L49.5514 102.416L51.9683 99.8737L43.2594 91.5974L40.8425 94.1395Z" fill="#313131"/>
<path d="M24.9805 138.637C24.8825 138.637 24.7887 138.598 24.7185 138.53L15.4545 129.722C15.3807 129.651 15.3379 129.553 15.3354 129.451C15.3329 129.348 15.3709 129.249 15.4413 129.174L18.3897 126.071C18.4609 125.997 18.558 125.955 18.6601 125.953C18.711 125.951 18.7618 125.959 18.8095 125.977C18.8572 125.995 18.9007 126.022 18.9376 126.057L28.2078 134.865C28.2808 134.937 28.3241 135.033 28.3289 135.136C28.3302 135.187 28.3213 135.238 28.3027 135.285C28.2842 135.333 28.2564 135.376 28.221 135.413L25.2726 138.516C25.2349 138.556 25.1895 138.587 25.1392 138.608C25.0889 138.628 25.0349 138.639 24.9805 138.637ZM16.262 129.426L24.971 137.703L27.3879 135.161L18.6789 126.884L16.262 129.426Z" fill="#313131"/>
<path d="M42.7802 138.81C42.7273 138.809 42.6751 138.797 42.6269 138.776C42.5786 138.754 42.5354 138.723 42.4998 138.683L39.612 135.523C39.5773 135.486 39.5504 135.442 39.5328 135.394C39.5152 135.346 39.5073 135.295 39.5095 135.244C39.5151 135.142 39.5604 135.045 39.6359 134.976L49.0751 126.349C49.1117 126.315 49.1552 126.288 49.2028 126.271C49.2504 126.254 49.301 126.247 49.3515 126.25C49.4021 126.252 49.4518 126.264 49.4978 126.285C49.5438 126.306 49.5852 126.336 49.6195 126.373L52.5103 129.533C52.5446 129.571 52.5711 129.615 52.5883 129.663C52.6055 129.711 52.6131 129.762 52.6106 129.813C52.6081 129.863 52.5955 129.913 52.5737 129.959C52.5519 130.005 52.5212 130.047 52.4834 130.081L43.0473 138.707C42.9747 138.774 42.8791 138.811 42.7802 138.81ZM40.4437 135.287L42.8109 137.876L51.6787 129.77L49.3115 127.181L40.4437 135.287Z" fill="#313131"/>
<path d="M201.057 82.5367L170.23 82.2379L169.931 113.065L200.758 113.364L201.057 82.5367Z" fill="white"/>
<path d="M200.754 113.751L169.927 113.452C169.825 113.451 169.727 113.409 169.655 113.336C169.583 113.263 169.543 113.164 169.544 113.061L169.843 82.2342C169.844 82.1316 169.886 82.0336 169.959 81.9617C170.032 81.8899 170.131 81.8501 170.233 81.8511L201.061 82.1499C201.163 82.1509 201.261 82.1926 201.333 82.2659C201.405 82.3391 201.445 82.4379 201.444 82.5405L201.145 113.368C201.144 113.47 201.102 113.568 201.029 113.64C200.956 113.712 200.857 113.752 200.754 113.751ZM170.321 112.682L200.375 112.973L200.666 82.9198L170.613 82.6285L170.321 112.682Z" fill="#313131"/>
<path d="M185.662 80.4813C186.918 80.4935 187.946 79.4851 187.958 78.2289C187.971 76.9728 186.962 75.9446 185.706 75.9324C184.45 75.9203 183.422 76.9287 183.41 78.1848C183.397 79.441 184.406 80.4692 185.662 80.4813Z" fill="#FFA620"/>
<path d="M185.658 80.8805C185.132 80.8754 184.619 80.7144 184.184 80.4177C183.749 80.121 183.412 79.7021 183.215 79.2139C183.019 78.7256 182.971 78.19 183.079 77.6748C183.186 77.1596 183.444 76.6878 183.82 76.3192C184.196 75.9507 184.673 75.7018 185.19 75.6041C185.707 75.5064 186.242 75.5643 186.726 75.7705C187.21 75.9766 187.623 76.3217 187.911 76.7622C188.199 77.2027 188.35 77.7187 188.345 78.2451C188.342 78.5946 188.269 78.94 188.133 79.2615C187.996 79.5831 187.797 79.8746 187.547 80.1193C187.298 80.364 187.003 80.5572 186.678 80.6878C186.354 80.8185 186.007 80.8839 185.658 80.8805ZM185.702 76.3347C185.329 76.3311 184.962 76.4384 184.65 76.6429C184.337 76.8475 184.093 77.1401 183.947 77.4838C183.8 77.8275 183.76 78.2069 183.829 78.5738C183.899 78.9408 184.075 79.2789 184.337 79.5453C184.599 79.8117 184.934 79.9945 185.299 80.0706C185.665 80.1466 186.045 80.1125 186.391 79.9725C186.738 79.8325 187.035 79.5929 187.245 79.2841C187.455 78.9752 187.568 78.6111 187.571 78.2376C187.575 77.9888 187.53 77.7417 187.438 77.5105C187.346 77.2793 187.21 77.0686 187.036 76.8906C186.862 76.7125 186.655 76.5707 186.426 76.4731C186.197 76.3756 185.951 76.3244 185.702 76.3224L185.702 76.3347Z" fill="#313131"/>
<path d="M185.624 84.4049C185.521 84.4039 185.423 84.3622 185.351 84.2889C185.28 84.2157 185.24 84.1169 185.241 84.0143L185.275 80.4773C185.276 80.3747 185.318 80.2767 185.391 80.2049C185.464 80.1331 185.563 80.0933 185.666 80.0943C185.768 80.0953 185.866 80.137 185.938 80.2102C186.01 80.2835 186.05 80.3822 186.049 80.4848L186.014 84.0218C186.013 84.1244 185.972 84.2224 185.898 84.2942C185.825 84.3661 185.726 84.4059 185.624 84.4049Z" fill="#313131"/>
<path d="M175.752 92.0124C175.691 92.01 175.631 91.9931 175.577 91.963C175.524 91.9329 175.478 91.8904 175.444 91.8392L173.834 89.4004C173.804 89.3581 173.783 89.3103 173.772 89.2597C173.761 89.2092 173.76 89.1569 173.77 89.1061C173.78 89.0552 173.799 89.0068 173.828 88.9637C173.857 88.9206 173.893 88.8837 173.937 88.8552C173.98 88.8266 174.028 88.807 174.079 88.7974C174.13 88.7879 174.182 88.7887 174.233 88.7997C174.283 88.8107 174.331 88.8318 174.373 88.8616C174.416 88.8914 174.451 88.9294 174.479 88.9734L175.79 90.9606L178.392 87.5815C178.454 87.5 178.546 87.4467 178.648 87.4332C178.698 87.4265 178.749 87.4297 178.798 87.4428C178.848 87.4559 178.894 87.4785 178.934 87.5094C178.974 87.5403 179.008 87.5788 179.034 87.6227C179.059 87.6667 179.076 87.7152 179.082 87.7656C179.089 87.816 179.086 87.8671 179.073 87.9162C179.059 87.9653 179.037 88.0113 179.006 88.0517L176.072 91.8577C176.035 91.9072 175.987 91.9471 175.931 91.974C175.875 92.001 175.814 92.0141 175.752 92.0124Z" fill="#313131"/>
<path d="M195.449 90.2843L181.304 90.1472C181.201 90.1462 181.103 90.1045 181.031 90.0312C180.959 89.958 180.92 89.8592 180.921 89.7566C180.922 89.654 180.963 89.556 181.037 89.4842C181.11 89.4124 181.209 89.3726 181.311 89.3736L195.456 89.5107C195.559 89.5117 195.657 89.5534 195.728 89.6266C195.8 89.6999 195.84 89.7987 195.839 89.9012C195.838 90.0038 195.796 90.1018 195.723 90.1737C195.65 90.2455 195.551 90.2853 195.449 90.2843Z" fill="#313131"/>
<path d="M175.666 100.856C175.605 100.854 175.545 100.837 175.491 100.807C175.438 100.777 175.392 100.734 175.359 100.683L173.748 98.2413C173.701 98.156 173.687 98.0558 173.71 97.9608C173.733 97.8659 173.792 97.7833 173.873 97.7296C173.955 97.6759 174.054 97.6551 174.15 97.6714C174.247 97.6877 174.333 97.7398 174.393 97.8174L175.704 99.8046L178.306 96.4255C178.337 96.3852 178.376 96.3514 178.42 96.326C178.464 96.3006 178.513 96.2842 178.563 96.2776C178.614 96.2711 178.665 96.2745 178.714 96.2878C178.763 96.3011 178.809 96.3239 178.85 96.355C178.89 96.3861 178.924 96.4248 178.949 96.4689C178.975 96.5131 178.991 96.5618 178.997 96.6123C179.004 96.6628 179.001 96.7141 178.987 96.7632C178.974 96.8124 178.951 96.8585 178.92 96.8988L175.987 100.705C175.949 100.753 175.9 100.792 175.844 100.819C175.789 100.845 175.728 100.858 175.666 100.856Z" fill="#313131"/>
<path d="M195.363 99.1284L181.218 98.9913C181.115 98.9903 181.017 98.9486 180.946 98.8754C180.874 98.8021 180.834 98.7033 180.835 98.6007C180.836 98.4982 180.878 98.4002 180.951 98.3283C181.024 98.2565 181.123 98.2167 181.225 98.2177L195.37 98.3548C195.473 98.3558 195.571 98.3975 195.643 98.4707C195.715 98.544 195.754 98.6428 195.753 98.7454C195.752 98.8479 195.711 98.9459 195.637 99.0178C195.564 99.0896 195.465 99.1294 195.363 99.1284Z" fill="#313131"/>
<path d="M175.581 109.626C175.52 109.624 175.46 109.607 175.407 109.576C175.353 109.546 175.308 109.504 175.274 109.453L173.663 107.014C173.633 106.972 173.612 106.924 173.602 106.873C173.591 106.823 173.59 106.77 173.599 106.72C173.609 106.669 173.629 106.62 173.657 106.577C173.686 106.534 173.723 106.497 173.766 106.469C173.809 106.44 173.857 106.42 173.908 106.411C173.959 106.401 174.011 106.402 174.062 106.413C174.112 106.424 174.16 106.445 174.203 106.475C174.245 106.505 174.281 106.543 174.308 106.587L175.62 108.574L178.221 105.195C178.252 105.154 178.29 105.12 178.334 105.094C178.378 105.069 178.426 105.052 178.477 105.045C178.527 105.039 178.579 105.042 178.628 105.055C178.677 105.069 178.723 105.092 178.763 105.123C178.844 105.186 178.897 105.278 178.91 105.379C178.924 105.481 178.897 105.583 178.835 105.665L175.902 109.471C175.865 109.521 175.816 109.561 175.76 109.588C175.705 109.614 175.643 109.628 175.581 109.626Z" fill="#313131"/>
<path d="M195.278 107.898L181.133 107.761C181.03 107.76 180.932 107.718 180.861 107.645C180.789 107.572 180.749 107.473 180.75 107.37C180.751 107.268 180.793 107.17 180.866 107.098C180.939 107.026 181.038 106.986 181.14 106.987L195.285 107.125C195.388 107.126 195.486 107.167 195.558 107.24C195.63 107.314 195.669 107.412 195.668 107.515C195.667 107.618 195.626 107.716 195.553 107.787C195.479 107.859 195.38 107.899 195.278 107.898Z" fill="#313131"/>
<path d="M126.605 208.769C123.371 208.738 120.773 205.735 120.808 202.081C120.844 198.426 123.5 195.475 126.734 195.506C129.967 195.538 132.563 198.537 132.527 202.194C132.492 205.852 129.836 208.8 126.605 208.769ZM126.726 196.28C123.919 196.253 121.613 198.858 121.582 202.088C121.551 205.319 123.806 207.968 126.612 207.996C129.419 208.023 131.722 205.418 131.753 202.187C131.785 198.956 129.53 196.307 126.726 196.28Z" fill="#313131"/>
<path d="M96.1201 202.228L96.0225 202.227C86.0561 200.246 69.0974 198.652 68.9421 198.638C68.8228 198.627 68.7134 198.576 68.6379 198.496C68.5624 198.416 68.527 198.314 68.5395 198.212C68.552 198.11 68.6113 198.016 68.7045 197.952C68.7977 197.887 68.917 197.857 69.0363 197.868C69.2098 197.87 86.2189 199.483 96.2359 201.474C96.3439 201.496 96.439 201.551 96.503 201.629C96.567 201.707 96.5954 201.802 96.5829 201.896C96.5704 201.99 96.5178 202.077 96.4351 202.14C96.3524 202.203 96.2454 202.238 96.1345 202.238L96.1201 202.228Z" fill="#313131"/>
<path d="M160.032 202.848C159.925 202.847 159.821 202.81 159.742 202.746C159.663 202.682 159.613 202.594 159.602 202.499C159.591 202.404 159.62 202.309 159.684 202.232C159.747 202.156 159.84 202.102 159.945 202.083C169.66 200.283 186.126 199.006 186.291 198.996C186.348 198.991 186.405 198.996 186.46 199.011C186.515 199.026 186.566 199.05 186.61 199.083C186.654 199.116 186.69 199.156 186.716 199.201C186.742 199.247 186.758 199.296 186.762 199.347C186.768 199.397 186.762 199.448 186.745 199.497C186.728 199.546 186.7 199.591 186.663 199.63C186.627 199.669 186.582 199.701 186.531 199.724C186.48 199.748 186.424 199.762 186.367 199.767C186.203 199.765 169.789 201.048 160.137 202.84L160.032 202.848Z" fill="#313131"/>
<path d="M52.4562 205.494C55.5549 203.228 57.0454 199.995 55.7854 198.271C54.5254 196.548 50.992 196.988 47.8933 199.254C44.7947 201.52 43.3041 204.753 44.5641 206.477C45.8241 208.2 49.3575 207.76 52.4562 205.494Z" fill="#21A2FF"/>
<path d="M47.034 207.908C45.7962 207.896 44.8316 207.478 44.2604 206.696C42.8524 204.77 44.3493 201.361 47.6719 198.933C49.0816 197.861 50.7358 197.156 52.4856 196.882C54.1215 196.681 55.4081 197.092 56.1045 198.043C56.8009 198.994 56.8032 200.346 56.114 201.844C55.2907 203.409 54.1204 204.765 52.6927 205.809C51.2649 206.853 49.6175 207.557 47.8762 207.867C47.5966 207.898 47.3153 207.912 47.034 207.908ZM44.8838 206.238C45.4061 206.955 46.4214 207.255 47.7816 207.089C49.3917 206.794 50.9144 206.139 52.2357 205.173C53.557 204.206 54.6427 202.954 55.4117 201.509C55.9776 200.276 56.0034 199.206 55.4781 198.492C54.9527 197.778 53.9405 197.474 52.5834 197.641C50.9623 197.901 49.431 198.559 48.1269 199.557C45.2563 201.655 43.7721 204.717 44.8838 206.238Z" fill="#313131"/>
<path d="M34.7076 197.765C35.7981 196.171 34.3595 193.29 31.4945 191.33C28.6295 189.37 25.423 189.074 24.3326 190.668C23.2421 192.262 24.6807 195.143 27.5457 197.103C30.4107 199.062 33.6172 199.359 34.7076 197.765Z" fill="#21A2FF"/>
<path d="M32.2578 199.161C32.0969 199.16 31.9298 199.158 31.7598 199.138C30.1627 198.936 28.6406 198.342 27.3293 197.408C24.255 195.296 22.7869 192.23 24.0143 190.435C25.2449 188.636 28.6282 188.882 31.718 190.995C34.8078 193.108 36.2605 196.17 35.033 197.969C34.4899 198.765 33.5173 199.174 32.2578 199.161ZM24.6538 190.871C23.7119 192.261 25.1279 194.964 27.7687 196.781C28.9706 197.639 30.3671 198.184 31.8322 198.368C33.0381 198.482 33.9477 198.184 34.3935 197.536C35.3354 196.143 33.9194 193.443 31.2786 191.625C28.6378 189.808 25.6051 189.469 24.6539 190.862L24.6538 190.871Z" fill="#313131"/>
<path d="M39.4779 212.239C44.6204 212.288 48.8543 205.609 48.9347 197.321C49.015 189.032 44.9113 182.272 39.7688 182.222C34.6263 182.172 30.3924 188.851 30.312 197.14C30.2317 205.429 34.3354 212.189 39.4779 212.239Z" fill="#21A2FF"/>
<path d="M39.4741 212.625C34.1269 212.574 29.843 205.624 29.9253 197.136C30.0075 188.648 34.4253 181.786 39.7726 181.838C45.1199 181.89 49.4038 188.836 49.3215 197.324C49.2392 205.812 44.8214 212.677 39.4741 212.625ZM39.7651 182.609C34.8449 182.561 30.7771 189.08 30.6989 197.141C30.6208 205.202 34.5614 211.801 39.4817 211.849C44.4019 211.896 48.4697 205.378 48.5479 197.314C48.6261 189.249 44.6884 182.66 39.7651 182.612L39.7651 182.609Z" fill="#313131"/>
<path d="M35.5417 196.559C35.4905 196.56 35.4397 196.549 35.3925 196.529C35.3454 196.509 35.3028 196.479 35.2674 196.442L33.4105 194.53C33.3489 194.455 33.3177 194.359 33.3232 194.262C33.3287 194.164 33.3705 194.072 33.4403 194.004C33.5101 193.936 33.6028 193.897 33.7003 193.894C33.7977 193.891 33.8927 193.924 33.9667 193.988L35.8236 195.894C35.8593 195.93 35.8875 195.973 35.9065 196.02C35.9256 196.067 35.9351 196.118 35.9346 196.169C35.9341 196.22 35.9236 196.27 35.9036 196.317C35.8837 196.363 35.8547 196.406 35.8183 196.441C35.7452 196.516 35.6459 196.558 35.5417 196.559Z" fill="#313131"/>
<path d="M47.5293 196.722C47.4419 196.721 47.3573 196.691 47.2892 196.637C47.2211 196.582 47.1735 196.506 47.1542 196.42C47.1349 196.335 47.1451 196.246 47.183 196.167C47.221 196.088 47.2844 196.025 47.3631 195.987L49.7513 194.815C49.7972 194.789 49.8479 194.773 49.9003 194.767C49.9528 194.762 50.0059 194.767 50.0563 194.782C50.1067 194.798 50.1534 194.824 50.1935 194.858C50.2336 194.892 50.2663 194.934 50.2895 194.982C50.3127 195.029 50.326 195.081 50.3285 195.133C50.3311 195.186 50.3228 195.239 50.3042 195.288C50.2856 195.337 50.2571 195.383 50.2205 195.421C50.1839 195.458 50.1399 195.489 50.0912 195.509L47.703 196.683C47.6489 196.71 47.5894 196.723 47.5293 196.722Z" fill="#313131"/>
<path d="M35.8903 186.14C35.839 186.14 35.7883 186.129 35.7412 186.109C35.694 186.089 35.6515 186.059 35.616 186.022L33.7777 184.111C33.7389 184.075 33.7077 184.032 33.6862 183.984C33.6646 183.936 33.6531 183.884 33.6523 183.831C33.6515 183.779 33.6614 183.727 33.6815 183.678C33.7015 183.629 33.7313 183.585 33.769 183.549C33.8067 183.512 33.8514 183.483 33.9006 183.464C33.9497 183.445 34.0021 183.437 34.0547 183.439C34.1073 183.441 34.1589 183.454 34.2063 183.477C34.2538 183.499 34.2961 183.532 34.3307 183.571L36.1845 185.483C36.2377 185.538 36.2736 185.607 36.2875 185.683C36.3014 185.758 36.2927 185.835 36.2626 185.905C36.2324 185.976 36.1821 186.035 36.1181 186.077C36.054 186.119 35.9791 186.141 35.9027 186.14L35.8903 186.14Z" fill="#313131"/>
<path d="M39.2877 183.335C39.2366 183.334 39.1863 183.323 39.1395 183.302C39.0927 183.282 39.0504 183.252 39.0151 183.215C38.9798 183.179 38.9521 183.135 38.9337 183.087C38.9153 183.04 38.9065 182.989 38.9078 182.938L38.9583 180.28C38.9593 180.177 39.001 180.079 39.0743 180.008C39.1475 179.936 39.2463 179.896 39.3489 179.897C39.4515 179.898 39.5495 179.94 39.6213 180.013C39.6931 180.086 39.7329 180.185 39.7319 180.287L39.6814 182.949C39.6813 183 39.671 183.051 39.6511 183.098C39.6312 183.145 39.6021 183.188 39.5654 183.224C39.5288 183.26 39.4854 183.288 39.4377 183.307C39.39 183.326 39.339 183.336 39.2877 183.335Z" fill="#313131"/>
<path d="M31.5676 202.67C31.5211 202.669 31.4752 202.661 31.4317 202.644L28.9651 201.692C28.9177 201.674 28.8744 201.646 28.8377 201.611C28.8009 201.576 28.7714 201.534 28.7509 201.487C28.7094 201.394 28.707 201.287 28.744 201.191C28.781 201.096 28.8546 201.019 28.9484 200.977C29.0423 200.936 29.1487 200.933 29.2444 200.97L31.711 201.923C31.7955 201.955 31.8658 202.017 31.9097 202.096C31.9536 202.175 31.9683 202.267 31.9512 202.356C31.9342 202.445 31.8864 202.525 31.8163 202.583C31.7462 202.64 31.6582 202.671 31.5676 202.67Z" fill="#313131"/>
<path d="M27.5454 191.379C27.4695 191.378 27.3954 191.356 27.3324 191.313C27.2695 191.271 27.2206 191.21 27.1918 191.14L26.1727 188.682C26.1528 188.635 26.1425 188.585 26.1423 188.534C26.142 188.483 26.1519 188.433 26.1714 188.386C26.1909 188.339 26.2195 188.296 26.2556 188.26C26.2918 188.224 26.3347 188.196 26.3819 188.177C26.4767 188.138 26.5829 188.139 26.6775 188.178C26.7721 188.217 26.8475 188.292 26.8874 188.386L27.9065 190.844C27.9259 190.891 27.9358 190.941 27.9356 190.992C27.9354 191.043 27.9251 191.094 27.9054 191.141C27.8857 191.188 27.8569 191.23 27.8206 191.266C27.7844 191.302 27.7415 191.33 27.6943 191.349C27.6474 191.37 27.5966 191.38 27.5454 191.379Z" fill="#313131"/>
<path d="M26.1945 198.258C26.1011 198.258 26.0109 198.224 25.9406 198.162C25.8703 198.101 25.8246 198.016 25.8119 197.923C25.7992 197.831 25.8204 197.737 25.8716 197.659C25.9228 197.581 26.0006 197.524 26.0905 197.499L28.6447 196.756C28.6943 196.738 28.747 196.731 28.7995 196.735C28.852 196.738 28.9032 196.752 28.95 196.777C28.9968 196.801 29.0382 196.834 29.0717 196.875C29.1051 196.915 29.13 196.962 29.1447 197.013C29.1594 197.063 29.1636 197.116 29.1571 197.168C29.1506 197.221 29.1335 197.271 29.1069 197.316C29.0803 197.362 29.0447 197.401 29.0023 197.432C28.9599 197.464 28.9116 197.486 28.8603 197.498L26.3061 198.243C26.2696 198.253 26.2321 198.258 26.1945 198.258Z" fill="#313131"/>
<path d="M56.9675 203.198L56.9242 203.198L54.2811 202.89C54.2283 202.888 54.1766 202.874 54.1292 202.85C54.0818 202.827 54.0397 202.794 54.0056 202.753C53.9715 202.713 53.9461 202.666 53.9309 202.615C53.9158 202.564 53.9111 202.511 53.9174 202.458C53.9236 202.406 53.9406 202.355 53.9672 202.309C53.9938 202.264 54.0296 202.224 54.0722 202.193C54.1148 202.161 54.1634 202.139 54.215 202.127C54.2666 202.115 54.3201 202.114 54.3721 202.124L57.0152 202.428C57.1177 202.434 57.2136 202.481 57.2816 202.558C57.3496 202.635 57.3843 202.736 57.378 202.838C57.3716 202.941 57.3248 203.037 57.2478 203.105C57.1709 203.173 57.07 203.207 56.9675 203.201L56.9675 203.198Z" fill="#313131"/>
<path d="M51.3785 198.709C51.3182 198.708 51.2591 198.692 51.2057 198.664C51.1523 198.636 51.1061 198.596 51.0707 198.547C51.0353 198.498 51.0115 198.442 51.0014 198.383C50.9912 198.323 50.9949 198.262 51.012 198.204L51.8073 195.665C51.8226 195.616 51.8473 195.571 51.88 195.532C51.9128 195.493 51.9529 195.461 51.9981 195.437C52.0433 195.414 52.0927 195.399 52.1435 195.395C52.1943 195.39 52.2454 195.396 52.2941 195.411C52.3427 195.427 52.3878 195.451 52.4269 195.484C52.4659 195.517 52.4982 195.557 52.5217 195.602C52.5453 195.647 52.5597 195.697 52.5642 195.747C52.5686 195.798 52.5631 195.849 52.5477 195.898L51.7494 198.437C51.7248 198.516 51.6755 198.585 51.6088 198.634C51.542 198.683 51.4613 198.709 51.3785 198.709Z" fill="#313131"/>
<path d="M54.7869 199.231C54.7023 199.231 54.6202 199.202 54.5532 199.151C54.4863 199.099 54.4381 199.027 54.416 198.945C54.394 198.863 54.3993 198.777 54.4313 198.698C54.4632 198.62 54.5199 198.554 54.5927 198.511L56.8745 197.144C56.918 197.118 56.9663 197.1 57.0165 197.093C57.0668 197.085 57.118 197.088 57.1673 197.1C57.2166 197.112 57.263 197.134 57.3039 197.164C57.3448 197.195 57.3793 197.232 57.4055 197.276C57.4317 197.32 57.4491 197.368 57.4566 197.418C57.4641 197.468 57.4617 197.52 57.4495 197.569C57.4372 197.618 57.4153 197.665 57.3851 197.705C57.3549 197.746 57.317 197.781 57.2735 197.807L54.9917 199.174C54.9302 199.212 54.8592 199.232 54.7869 199.231Z" fill="#313131"/>
<path d="M40.2383 201.814C40.1543 201.813 40.073 201.784 40.0065 201.733C39.9401 201.682 39.8921 201.61 39.8698 201.529C39.8475 201.448 39.8522 201.362 39.8831 201.284C39.9139 201.206 39.9693 201.141 40.0409 201.097L42.3258 199.729C42.4133 199.684 42.5148 199.674 42.6095 199.701C42.7043 199.728 42.7851 199.79 42.8357 199.875C42.8862 199.959 42.9025 200.06 42.8813 200.156C42.8601 200.252 42.803 200.337 42.7217 200.392L40.443 201.76C40.3814 201.797 40.3103 201.816 40.2383 201.814Z" fill="#313131"/>
<path d="M31.6736 208.979C31.6072 208.977 31.5422 208.959 31.4846 208.926C31.4271 208.893 31.3788 208.846 31.3443 208.79C31.2922 208.702 31.2768 208.596 31.3015 208.497C31.3262 208.398 31.389 208.312 31.4763 208.259L33.7612 206.891C33.8047 206.861 33.854 206.841 33.9058 206.831C33.9576 206.821 34.0109 206.822 34.0625 206.833C34.114 206.844 34.1627 206.866 34.2055 206.897C34.2483 206.928 34.2844 206.967 34.3114 207.012C34.3385 207.058 34.356 207.108 34.3628 207.16C34.3697 207.213 34.3658 207.266 34.3513 207.317C34.3369 207.367 34.3122 207.415 34.2788 207.456C34.2453 207.496 34.2039 207.53 34.157 207.554L31.8753 208.922C31.8149 208.96 31.7449 208.979 31.6736 208.979Z" fill="#313131"/>
<path d="M42.1989 207.691C42.1326 207.69 42.0675 207.672 42.01 207.639C41.9524 207.606 41.9041 207.559 41.8696 207.502C41.8434 207.459 41.826 207.41 41.8185 207.36C41.8109 207.31 41.8134 207.258 41.8256 207.209C41.8379 207.16 41.8597 207.113 41.8899 207.073C41.9201 207.032 41.9581 206.997 42.0016 206.971L44.2865 205.604C44.3301 205.574 44.3793 205.553 44.4311 205.543C44.4829 205.533 44.5362 205.534 44.5878 205.545C44.6393 205.557 44.688 205.578 44.7308 205.609C44.7736 205.64 44.8097 205.679 44.8367 205.725C44.8638 205.77 44.8813 205.82 44.8882 205.873C44.895 205.925 44.8911 205.978 44.8766 206.029C44.8622 206.08 44.8375 206.127 44.8041 206.168C44.7707 206.209 44.7292 206.242 44.6824 206.267L42.4006 207.634C42.3403 207.672 42.2702 207.692 42.1989 207.691Z" fill="#313131"/>
<path d="M37.9194 206.69C37.8146 206.688 37.7149 206.645 37.642 206.57L35.8039 204.633C35.7398 204.558 35.7071 204.46 35.7127 204.362C35.7182 204.263 35.7614 204.17 35.8335 204.102C35.9057 204.034 36.0011 203.996 36.1002 203.996C36.1993 203.997 36.2945 204.035 36.3661 204.103L38.2042 206.037C38.2566 206.092 38.2916 206.161 38.3048 206.236C38.318 206.311 38.3089 206.388 38.2785 206.458C38.2481 206.528 38.1978 206.587 38.1339 206.628C38.07 206.67 37.9954 206.691 37.9194 206.69Z" fill="#313131"/>
<path d="M38.0692 191.224C38.0088 191.223 37.9495 191.208 37.896 191.18C37.8425 191.152 37.7963 191.112 37.7613 191.063L36.2007 188.906C36.1649 188.866 36.138 188.818 36.1216 188.767C36.1053 188.716 36.0998 188.661 36.1057 188.608C36.1116 188.554 36.1286 188.502 36.1558 188.455C36.1829 188.409 36.2195 188.368 36.2632 188.337C36.3069 188.305 36.3567 188.283 36.4095 188.271C36.4623 188.26 36.5169 188.26 36.5697 188.271C36.6225 188.282 36.6725 188.304 36.7163 188.336C36.7601 188.367 36.7968 188.408 36.8241 188.454L38.3846 190.611C38.4272 190.669 38.4527 190.737 38.4585 190.809C38.4643 190.881 38.45 190.953 38.4172 191.016C38.3845 191.08 38.3346 191.134 38.2731 191.171C38.2116 191.208 38.141 191.228 38.0692 191.227L38.0692 191.224Z" fill="#313131"/>
<path d="M45.7203 225.95L33.3547 225.83L32.7881 210.855L46.5771 210.989L45.7203 225.95Z" fill="#FFA620"/>
<path d="M45.7166 226.337L33.3386 226.217C33.2392 226.216 33.1439 226.177 33.0725 226.108C33.0012 226.039 32.9592 225.944 32.9554 225.845L32.3919 210.87C32.389 210.817 32.3971 210.765 32.4157 210.715C32.4343 210.666 32.463 210.621 32.4999 210.583C32.5365 210.547 32.5801 210.517 32.6281 210.498C32.6761 210.478 32.7276 210.468 32.7795 210.469L46.5685 210.602C46.6205 210.603 46.6717 210.614 46.7194 210.634C46.767 210.655 46.81 210.685 46.8459 210.722C46.882 210.761 46.91 210.807 46.9281 210.856C46.9462 210.906 46.9542 210.959 46.9514 211.011L46.0946 225.972C46.089 226.07 46.047 226.161 45.977 226.229C45.9069 226.296 45.8139 226.335 45.7166 226.337ZM33.7144 225.447L45.3435 225.56L46.1681 211.366L33.1898 211.24L33.7144 225.447Z" fill="#313131"/>
<path d="M46.0695 210.984L32.9117 210.857C31.8573 210.846 30.9942 211.693 30.9839 212.747L30.9839 212.751C30.9737 213.805 31.8202 214.668 32.8747 214.678L46.0325 214.806C47.0869 214.816 47.95 213.97 47.9603 212.915L47.9603 212.912C47.9705 211.858 47.124 210.994 46.0695 210.984Z" fill="#FFA620"/>
<path d="M46.0289 215.19L32.8866 215.062C32.2776 215.056 31.696 214.809 31.2695 214.374C30.8431 213.939 30.6068 213.353 30.6128 212.744C30.6187 212.135 30.8662 211.553 31.301 211.127C31.7358 210.7 32.3222 210.464 32.9311 210.47L46.0889 210.598C46.6978 210.603 47.2795 210.851 47.706 211.286C48.1324 211.721 48.3686 212.307 48.3627 212.916C48.3568 213.525 48.1093 214.107 47.6745 214.533C47.2397 214.959 46.6533 215.196 46.0444 215.19L46.0289 215.19ZM32.9237 211.237C32.5199 211.234 32.1311 211.39 31.8428 211.673C31.5545 211.956 31.3903 212.341 31.3864 212.745C31.3825 213.149 31.5392 213.538 31.8219 213.826C32.1047 214.114 32.4904 214.279 32.8942 214.282L46.0519 214.41C46.4557 214.414 46.8445 214.257 47.1328 213.974C47.4211 213.692 47.5853 213.306 47.5892 212.902C47.5931 212.498 47.4364 212.11 47.1537 211.821C46.8709 211.533 46.4852 211.369 46.0814 211.365L32.9237 211.237Z" fill="#313131"/>
<path d="M44.3982 186.736C44.3285 186.734 44.2604 186.715 44.201 186.678C44.1417 186.642 44.0932 186.59 44.0606 186.528C44.028 186.467 44.0125 186.397 44.0158 186.328C44.019 186.258 44.0409 186.191 44.0791 186.132L45.4983 184.029C45.5254 183.984 45.5613 183.945 45.604 183.914C45.6467 183.883 45.6952 183.862 45.7466 183.85C45.7979 183.839 45.8511 183.838 45.9027 183.848C45.9544 183.858 46.0035 183.878 46.0471 183.908C46.0906 183.937 46.1277 183.975 46.156 184.02C46.1844 184.064 46.2034 184.114 46.2118 184.166C46.2203 184.218 46.2182 184.271 46.2054 184.322C46.1927 184.373 46.1697 184.421 46.1378 184.462L44.7217 186.566C44.6858 186.618 44.6375 186.661 44.5811 186.691C44.5247 186.721 44.4619 186.736 44.3982 186.736Z" fill="#313131"/>
<path d="M43.4659 193.839C43.3725 193.838 43.2826 193.803 43.2131 193.74C43.1366 193.672 43.0904 193.576 43.0844 193.473C43.0784 193.37 43.1133 193.269 43.1813 193.192L44.7458 191.431C44.7797 191.393 44.8207 191.362 44.8665 191.34C44.9123 191.318 44.962 191.306 45.0128 191.303C45.0635 191.3 45.1143 191.307 45.1623 191.324C45.2102 191.341 45.2544 191.367 45.2923 191.401C45.3302 191.435 45.361 191.476 45.383 191.521C45.405 191.567 45.4178 191.617 45.4206 191.668C45.4234 191.718 45.4162 191.769 45.3994 191.817C45.3826 191.865 45.3565 191.909 45.3226 191.947L43.7581 193.709C43.7221 193.75 43.6772 193.784 43.6266 193.806C43.5761 193.829 43.5212 193.84 43.4659 193.839Z" fill="#313131"/>
<path d="M46.6118 189.846C46.519 189.845 46.4295 189.811 46.359 189.751C46.2822 189.683 46.2354 189.588 46.2289 189.485C46.2223 189.383 46.2565 189.283 46.324 189.206L47.9168 187.398C47.9848 187.321 48.0806 187.275 48.1831 187.268C48.2856 187.262 48.3864 187.297 48.4633 187.365C48.5402 187.433 48.587 187.529 48.5932 187.631C48.5995 187.734 48.5648 187.835 48.4967 187.911L46.904 189.71C46.8686 189.753 46.8239 189.787 46.7734 189.811C46.7228 189.834 46.6676 189.846 46.6118 189.846Z" fill="#313131"/>
<path d="M32.8748 214.675L46.3574 214.806L46.2744 216.034L32.9959 215.905L32.8748 214.675Z" fill="#313131"/>
<path d="M127.917 180.482C127.82 180.481 127.727 180.447 127.659 180.388C127.591 180.329 127.553 180.249 127.554 180.166L127.773 157.531C127.774 157.448 127.813 157.369 127.883 157.311C127.952 157.253 128.045 157.221 128.142 157.222C128.24 157.223 128.333 157.256 128.401 157.316C128.469 157.375 128.507 157.455 128.506 157.538L128.286 180.173C128.286 180.256 128.246 180.335 128.177 180.393C128.108 180.451 128.014 180.483 127.917 180.482Z" fill="#313131"/>
<path d="M116.869 131.144L128.263 143.321L139.611 131.365L143.217 134.727L142.215 151.121L128.263 143.321L115.02 151.462L112.774 134.441L116.869 131.144Z" fill="white"/>
<path d="M141.447 91.9691C141.135 92.1281 140.814 92.2692 140.486 92.3914C135.842 94.1136 131.887 93.3535 128.658 92.786C123.753 91.9257 123.558 90.8244 120.03 91.8728C116.679 92.852 115.323 98.0257 115.281 98.1703L115.35 95.2706C115.387 93.5795 115.757 91.9122 116.439 90.3641C117.12 88.816 118.101 87.4174 119.323 86.2482C120.545 85.0791 121.986 84.1622 123.563 83.5501C125.14 82.938 126.822 82.6426 128.513 82.6808L129.373 82.6892C131.322 82.7317 132.746 82.6848 137.425 84.5715C141.863 86.3547 141.733 84.0871 141.733 84.0871C144.548 85.5545 144.037 90.625 141.447 91.9691Z" fill="#313131"/>
<path d="M114.811 151.924C114.752 151.924 114.695 151.91 114.642 151.884C114.58 151.854 114.527 151.809 114.488 151.752C114.449 151.696 114.425 151.631 114.418 151.562L112.136 134.27C112.126 134.202 112.135 134.133 112.161 134.069C112.187 134.005 112.229 133.95 112.283 133.907L116.445 130.554C116.523 130.491 116.623 130.459 116.723 130.466C116.824 130.473 116.919 130.518 116.988 130.592L128.272 142.652L139.506 130.845C139.58 130.769 139.679 130.725 139.785 130.722C139.89 130.719 139.992 130.757 140.07 130.828L143.733 134.247C143.778 134.287 143.813 134.337 143.835 134.393C143.857 134.449 143.866 134.509 143.861 134.568L142.84 151.227C142.835 151.293 142.813 151.356 142.778 151.412C142.742 151.467 142.693 151.513 142.635 151.545C142.575 151.576 142.509 151.593 142.441 151.592C142.374 151.591 142.307 151.574 142.248 151.541L128.278 143.73L115.023 151.875C114.958 151.911 114.885 151.928 114.811 151.924ZM112.96 134.403L115.132 150.859L127.644 143.168L116.654 131.426L112.96 134.403ZM128.913 143.154L142.082 150.519L143.051 134.685L139.815 131.667L128.913 143.154Z" fill="#313131"/>
<path d="M128.123 158.36C128.06 158.358 127.997 158.341 127.942 158.31C127.887 158.278 127.84 158.234 127.805 158.181L120.905 147.803C120.846 147.715 120.825 147.607 120.845 147.503C120.866 147.398 120.928 147.307 121.016 147.248C121.104 147.189 121.212 147.168 121.317 147.188C121.421 147.209 121.512 147.27 121.571 147.359L128.125 157.218L134.546 146.727C134.601 146.636 134.691 146.571 134.794 146.546C134.898 146.522 135.007 146.539 135.097 146.594C135.188 146.65 135.253 146.739 135.277 146.843C135.302 146.946 135.285 147.055 135.229 147.146L128.477 158.155C128.443 158.211 128.396 158.258 128.34 158.292C128.284 158.325 128.221 158.344 128.155 158.347L128.123 158.36Z" fill="#313131"/>
<path d="M97.059 194.63L159.283 195.233L158.97 227.582L96.7454 226.978L97.059 194.63Z" fill="#21A2FF"/>
<path d="M96.7415 227.375L158.95 227.978C159.056 227.979 159.159 227.937 159.236 227.863C159.312 227.788 159.355 227.686 159.356 227.579L159.67 195.237C159.671 195.13 159.63 195.027 159.555 194.951C159.48 194.875 159.378 194.831 159.271 194.83L97.0628 194.227C96.956 194.226 96.8531 194.268 96.7768 194.342C96.7005 194.417 96.657 194.519 96.656 194.626L96.3425 226.971C96.3423 227.078 96.3841 227.18 96.4589 227.255C96.5336 227.331 96.6352 227.374 96.7415 227.375ZM158.571 227.168L97.1522 226.573L97.4579 195.037L158.876 195.632L158.571 227.168Z" fill="#313131"/>
<path d="M103.955 223.464L152.252 223.932C152.358 223.933 152.461 223.892 152.538 223.817C152.614 223.742 152.657 223.64 152.658 223.533L152.868 201.937C152.869 201.831 152.827 201.728 152.752 201.651C152.678 201.575 152.576 201.532 152.469 201.531L104.172 201.062C104.065 201.061 103.962 201.103 103.886 201.178C103.81 201.252 103.766 201.355 103.765 201.461L103.556 223.057C103.555 223.164 103.596 223.267 103.671 223.343C103.746 223.419 103.848 223.463 103.955 223.464ZM151.856 223.122L104.366 222.662L104.567 201.866L152.058 202.326L151.856 223.122Z" fill="#313131"/>
<path d="M145.765 209.028C144.667 209.017 143.785 208.118 143.796 207.02C143.807 205.922 144.706 205.04 145.804 205.051C146.902 205.061 147.784 205.96 147.773 207.059C147.763 208.157 146.864 209.039 145.765 209.028Z" fill="white"/>
<path d="M135.854 208.932C134.756 208.921 133.874 208.022 133.885 206.924C133.895 205.826 134.794 204.944 135.893 204.954C136.991 204.965 137.873 205.864 137.862 206.962C137.851 208.061 136.952 208.943 135.854 208.932Z" fill="white"/>
<path d="M145.761 209.431C146.234 209.435 146.698 209.3 147.094 209.041C147.49 208.782 147.8 208.411 147.985 207.976C148.171 207.541 148.223 207.06 148.135 206.595C148.047 206.131 147.823 205.702 147.492 205.365C147.161 205.027 146.737 204.795 146.274 204.698C145.811 204.601 145.33 204.644 144.891 204.821C144.452 204.998 144.076 205.301 143.809 205.691C143.542 206.082 143.398 206.543 143.393 207.016C143.388 207.65 143.634 208.26 144.078 208.713C144.522 209.166 145.127 209.424 145.761 209.431ZM145.8 205.453C146.114 205.456 146.419 205.552 146.678 205.729C146.938 205.906 147.138 206.156 147.256 206.447C147.373 206.738 147.401 207.057 147.337 207.364C147.273 207.671 147.119 207.952 146.895 208.171C146.671 208.391 146.387 208.539 146.079 208.598C145.771 208.656 145.452 208.621 145.164 208.498C144.875 208.376 144.629 208.17 144.458 207.908C144.286 207.645 144.196 207.338 144.199 207.024C144.204 206.604 144.375 206.202 144.675 205.908C144.975 205.614 145.38 205.45 145.8 205.453Z" fill="#313131"/>
<path d="M135.85 209.335C136.323 209.34 136.787 209.205 137.184 208.946C137.58 208.688 137.89 208.317 138.076 207.882C138.262 207.447 138.314 206.966 138.227 206.501C138.14 206.036 137.916 205.608 137.585 205.27C137.254 204.932 136.83 204.699 136.367 204.602C135.904 204.505 135.422 204.548 134.983 204.724C134.544 204.901 134.168 205.204 133.901 205.595C133.634 205.986 133.489 206.447 133.485 206.92C133.48 207.554 133.725 208.163 134.169 208.616C134.612 209.068 135.217 209.327 135.85 209.335ZM135.889 205.357C136.202 205.36 136.508 205.455 136.768 205.632C137.027 205.808 137.229 206.057 137.347 206.348C137.464 206.639 137.493 206.958 137.429 207.266C137.365 207.573 137.212 207.854 136.988 208.074C136.764 208.294 136.48 208.443 136.172 208.501C135.864 208.56 135.545 208.525 135.256 208.403C134.967 208.28 134.721 208.074 134.55 207.812C134.378 207.549 134.288 207.242 134.291 206.928C134.295 206.508 134.465 206.107 134.765 205.812C135.064 205.518 135.469 205.354 135.889 205.357Z" fill="#313131"/>
<path d="M125.946 208.836C124.848 208.825 123.966 207.926 123.976 206.828C123.987 205.73 124.886 204.848 125.984 204.858C127.083 204.869 127.965 205.768 127.954 206.866C127.943 207.965 127.044 208.846 125.946 208.836Z" fill="#FFA620"/>
<path d="M125.942 209.239C126.415 209.243 126.879 209.108 127.275 208.849C127.67 208.59 127.981 208.219 128.166 207.784C128.351 207.349 128.403 206.868 128.315 206.403C128.227 205.938 128.004 205.51 127.673 205.172C127.341 204.835 126.917 204.603 126.454 204.506C125.991 204.409 125.51 204.452 125.071 204.629C124.632 204.805 124.256 205.108 123.989 205.499C123.723 205.89 123.578 206.351 123.573 206.824C123.568 207.458 123.815 208.068 124.258 208.521C124.702 208.974 125.308 209.232 125.942 209.239ZM125.98 205.261C126.294 205.264 126.6 205.36 126.859 205.537C127.118 205.714 127.319 205.964 127.436 206.254C127.553 206.545 127.582 206.865 127.517 207.172C127.453 207.479 127.299 207.76 127.076 207.979C126.852 208.199 126.568 208.347 126.259 208.405C125.951 208.464 125.633 208.429 125.344 208.306C125.055 208.184 124.81 207.978 124.638 207.715C124.466 207.453 124.376 207.145 124.379 206.832C124.384 206.411 124.555 206.01 124.856 205.716C125.156 205.422 125.56 205.258 125.98 205.261Z" fill="#313131"/>
<path d="M111.035 216.644L147.738 217C147.845 217.001 147.948 216.959 148.024 216.884C148.101 216.809 148.144 216.707 148.145 216.601L148.18 212.945C148.181 212.839 148.14 212.736 148.065 212.659C147.99 212.583 147.888 212.54 147.781 212.539L111.079 212.183C110.972 212.182 110.869 212.223 110.793 212.298C110.716 212.373 110.673 212.475 110.672 212.582L110.636 216.227C110.635 216.281 110.644 216.334 110.663 216.385C110.682 216.435 110.711 216.481 110.748 216.52C110.785 216.558 110.83 216.589 110.879 216.611C110.929 216.632 110.982 216.643 111.035 216.644ZM147.343 216.19L111.446 215.842L111.474 212.992L147.371 213.34L147.343 216.19Z" fill="#313131"/>
<path d="M233.091 130.768L237.829 133.017L210.025 191.612L205.287 189.364L233.091 130.768Z" fill="#FFA620"/>
<path d="M185.808 104.491L188.702 100.117L237.442 132.372L234.548 136.745L185.808 104.491Z" fill="#FFA620"/>
<path d="M158.493 145.712L154.405 142.427L188.609 99.8634L192.697 103.149L158.493 145.712Z" fill="#FFA620"/>
<path d="M122.24 156.161L120.729 151.139L157.523 140.069L159.034 145.091L122.24 156.161Z" fill="#FFA620"/>
<path d="M210.017 192.015C210.095 192.016 210.171 191.995 210.236 191.953C210.302 191.912 210.354 191.853 210.387 191.783L238.191 133.188C238.212 133.14 238.223 133.088 238.223 133.035C238.224 132.983 238.214 132.93 238.194 132.882C238.177 132.831 238.15 132.785 238.114 132.746C238.078 132.707 238.035 132.676 237.986 132.654L233.25 130.403C233.153 130.358 233.043 130.353 232.942 130.389C232.842 130.425 232.76 130.499 232.713 130.595L204.91 189.19C204.864 189.286 204.859 189.396 204.894 189.497C204.929 189.597 205.002 189.68 205.098 189.727L209.837 191.975C209.893 192.002 209.955 192.016 210.017 192.015ZM237.291 133.208L209.827 191.078L205.819 189.173L233.293 131.306L237.291 133.208Z" fill="#313131"/>
<path d="M234.551 137.14C234.616 137.138 234.679 137.121 234.735 137.089C234.792 137.058 234.84 137.013 234.875 136.959L237.793 132.588C237.852 132.498 237.872 132.39 237.851 132.285C237.841 132.233 237.821 132.184 237.791 132.14C237.762 132.096 237.724 132.058 237.679 132.029L188.936 99.7756C188.847 99.7174 188.738 99.6967 188.634 99.718C188.529 99.7393 188.437 99.8009 188.378 99.8895L185.486 104.265C185.456 104.309 185.436 104.358 185.426 104.41C185.416 104.461 185.416 104.515 185.427 104.566C185.438 104.618 185.458 104.667 185.488 104.711C185.517 104.754 185.555 104.791 185.6 104.82L234.333 137.073C234.397 137.117 234.473 137.14 234.551 137.14ZM236.892 132.479L234.441 136.194L186.374 104.389L188.821 100.687L236.892 132.479Z" fill="#313131"/>
<path d="M158.492 146.128C158.554 146.129 158.616 146.116 158.672 146.09C158.728 146.064 158.777 146.025 158.816 145.977L193.018 103.416C193.084 103.333 193.115 103.226 193.104 103.12C193.092 103.014 193.039 102.916 192.956 102.848L188.868 99.5656C188.827 99.5322 188.78 99.5072 188.729 99.4921C188.679 99.4769 188.626 99.472 188.573 99.4775C188.521 99.4829 188.47 99.4988 188.423 99.524C188.377 99.5493 188.336 99.5835 188.303 99.6246L154.095 142.185C154.061 142.226 154.036 142.273 154.022 142.324C154.007 142.375 154.002 142.428 154.008 142.481C154.021 142.588 154.074 142.685 154.157 142.753L158.242 146.039C158.313 146.096 158.401 146.127 158.492 146.128ZM192.136 103.227L158.434 145.161L154.973 142.381L188.679 100.447L192.136 103.227Z" fill="#313131"/>
<path d="M122.23 156.572C122.271 156.572 122.313 156.566 122.352 156.554L159.143 145.487C159.194 145.472 159.241 145.447 159.282 145.413C159.323 145.38 159.357 145.339 159.382 145.293C159.407 145.246 159.423 145.195 159.428 145.142C159.433 145.09 159.428 145.037 159.413 144.986L157.904 139.965C157.873 139.863 157.803 139.777 157.709 139.726C157.614 139.674 157.504 139.663 157.401 139.693L120.603 150.761C120.501 150.792 120.415 150.863 120.365 150.957C120.314 151.051 120.302 151.161 120.331 151.264L121.839 156.285C121.87 156.387 121.94 156.473 122.034 156.525C122.094 156.557 122.161 156.573 122.23 156.572ZM158.528 144.833L122.49 155.669L121.209 151.418L157.231 140.581L158.528 144.833Z" fill="#313131"/>
<path d="M119.318 170.605L119.927 167.935C119.25 167.796 118.608 167.522 118.037 167.13C117.467 166.739 116.981 166.238 116.607 165.656C116.233 165.074 115.979 164.423 115.86 163.742C115.741 163.061 115.759 162.363 115.913 161.689C116.067 161.014 116.355 160.378 116.758 159.816C117.161 159.254 117.673 158.779 118.262 158.417C118.852 158.056 119.508 157.815 120.191 157.711C120.875 157.606 121.573 157.639 122.243 157.807L122.853 155.137C120.802 154.669 118.648 155.034 116.866 156.153C115.085 157.272 113.82 159.053 113.352 161.104C112.883 163.155 113.248 165.308 114.367 167.09C115.486 168.872 117.267 170.136 119.318 170.605Z" fill="#FFA620"/>
<path d="M127.007 170.48C128.001 170.116 128.913 169.557 129.687 168.835C130.462 168.114 131.085 167.245 131.518 166.279C131.952 165.313 132.188 164.271 132.212 163.212C132.237 162.154 132.049 161.102 131.66 160.117C131.271 159.132 130.69 158.236 129.949 157.479C129.208 156.723 128.324 156.123 127.347 155.713C126.371 155.304 125.323 155.095 124.264 155.097C123.206 155.099 122.158 155.314 121.184 155.727L122.19 158.27C123.466 157.792 124.879 157.834 126.124 158.388C127.37 158.941 128.348 159.962 128.848 161.229C129.348 162.497 129.33 163.91 128.798 165.164C128.266 166.419 127.262 167.414 126.004 167.936L127.007 170.48Z" fill="#FFA620"/>
<path d="M119.314 171.008C119.407 171.009 119.497 170.978 119.569 170.92C119.642 170.862 119.692 170.78 119.71 170.689L120.32 168.02C120.332 167.969 120.334 167.915 120.326 167.863C120.317 167.811 120.299 167.761 120.271 167.716C120.214 167.626 120.123 167.561 120.018 167.537C118.781 167.254 117.706 166.491 117.03 165.417C116.354 164.342 116.132 163.044 116.412 161.806C116.697 160.569 117.46 159.496 118.534 158.821C119.607 158.145 120.905 157.922 122.143 158.199C122.247 158.223 122.356 158.205 122.447 158.149C122.537 158.092 122.602 158.002 122.626 157.898L123.235 155.228C123.247 155.176 123.247 155.121 123.237 155.068C123.227 155.015 123.207 154.965 123.178 154.92C123.148 154.875 123.11 154.836 123.065 154.806C123.021 154.776 122.97 154.755 122.918 154.745C120.777 154.293 118.545 154.7 116.702 155.88C114.859 157.059 113.554 158.915 113.068 161.049C112.582 163.182 112.954 165.42 114.104 167.282C115.254 169.143 117.089 170.477 119.214 170.997L119.314 171.008ZM119.447 168.227L119.016 170.112C117.163 169.583 115.583 168.364 114.602 166.704C113.621 165.045 113.313 163.073 113.742 161.194C114.172 159.315 115.305 157.672 116.91 156.604C118.514 155.536 120.467 155.123 122.366 155.452L121.935 157.34C120.537 157.126 119.11 157.45 117.941 158.245C116.771 159.04 115.946 160.249 115.631 161.627C115.316 163.006 115.535 164.453 116.243 165.677C116.95 166.901 118.095 167.813 119.447 168.227Z" fill="#313131"/>
<path d="M127.003 170.883C127.055 170.883 127.107 170.874 127.155 170.855C128.185 170.462 129.127 169.868 129.926 169.108C130.725 168.349 131.365 167.438 131.809 166.429C132.254 165.42 132.494 164.333 132.516 163.231C132.537 162.129 132.34 161.033 131.935 160.008C131.531 158.983 130.927 158.048 130.158 157.257C129.39 156.467 128.472 155.837 127.458 155.403C126.444 154.97 125.355 154.742 124.252 154.733C123.15 154.723 122.057 154.933 121.036 155.349C120.987 155.368 120.941 155.397 120.903 155.434C120.865 155.471 120.835 155.514 120.814 155.563C120.792 155.612 120.781 155.664 120.78 155.717C120.779 155.77 120.789 155.823 120.808 155.872L121.815 158.415C121.835 158.465 121.863 158.51 121.9 158.548C121.937 158.586 121.981 158.617 122.03 158.638C122.078 158.659 122.131 158.67 122.184 158.671C122.237 158.672 122.289 158.662 122.338 158.643C123.521 158.176 124.841 158.199 126.007 158.705C127.173 159.212 128.09 160.161 128.556 161.343C129.023 162.526 129 163.845 128.494 165.011C127.987 166.177 127.039 167.095 125.856 167.561C125.806 167.579 125.761 167.608 125.723 167.645C125.685 167.681 125.655 167.726 125.635 167.775C125.611 167.825 125.599 167.88 125.598 167.936C125.598 167.991 125.609 168.046 125.631 168.097L126.635 170.644C126.667 170.715 126.719 170.775 126.784 170.818C126.849 170.86 126.926 170.883 127.003 170.883ZM124.17 155.569C125.177 155.581 126.171 155.793 127.094 156.194C128.428 156.774 129.565 157.728 130.368 158.94C131.171 160.153 131.606 161.572 131.621 163.026C131.635 164.48 131.229 165.907 130.45 167.135C129.671 168.363 128.553 169.34 127.232 169.947L126.521 168.148C127.787 167.53 128.774 166.458 129.284 165.145C129.795 163.832 129.792 162.375 129.276 161.064C128.76 159.753 127.769 158.685 126.5 158.073C125.231 157.461 123.778 157.349 122.431 157.76L121.72 155.958C122.51 155.695 123.338 155.563 124.17 155.569Z" fill="#313131"/>
<path d="M208.494 199.492C204.62 199.454 201.511 196.283 201.548 192.41C201.586 188.536 204.756 185.427 208.63 185.464C212.503 185.502 215.613 188.672 215.576 192.546C215.538 196.419 212.367 199.529 208.494 199.492Z" fill="white"/>
<path d="M208.49 199.891C209.956 199.905 211.394 199.484 212.621 198.682C213.848 197.879 214.809 196.73 215.384 195.381C215.958 194.032 216.119 192.543 215.847 191.102C215.575 189.661 214.882 188.333 213.855 187.286C212.828 186.24 211.514 185.521 210.079 185.221C208.644 184.921 207.152 185.053 205.792 185.601C204.431 186.149 203.264 187.088 202.438 188.299C201.612 189.511 201.163 190.94 201.149 192.406C201.13 194.372 201.892 196.265 203.269 197.669C204.646 199.073 206.524 199.872 208.49 199.891ZM208.626 185.867C209.934 185.88 211.208 186.28 212.288 187.017C213.369 187.754 214.206 188.795 214.695 190.008C215.183 191.221 215.301 192.551 215.033 193.831C214.765 195.111 214.124 196.283 213.19 197.199C212.256 198.114 211.072 198.732 209.787 198.974C208.502 199.217 207.174 199.072 205.971 198.56C204.768 198.047 203.744 197.189 203.028 196.095C202.313 195 201.938 193.718 201.951 192.41C201.971 190.658 202.685 188.985 203.936 187.759C205.187 186.532 206.874 185.852 208.626 185.867Z" fill="#313131"/>
<path d="M184.527 221.16L232.034 221.62L231.969 228.289L184.462 227.829L184.527 221.16Z" fill="#FFA620"/>
<path d="M184.458 228.225L231.965 228.686C232.072 228.687 232.175 228.645 232.251 228.57C232.328 228.496 232.371 228.393 232.372 228.287L232.437 221.624C232.438 221.517 232.396 221.414 232.322 221.338C232.247 221.262 232.145 221.218 232.038 221.217L184.531 220.757C184.424 220.756 184.321 220.797 184.245 220.872C184.168 220.947 184.125 221.049 184.124 221.156L184.059 227.821C184.059 227.928 184.101 228.03 184.176 228.105C184.25 228.181 184.352 228.224 184.458 228.225ZM231.57 227.876L184.869 227.423L184.926 221.567L231.627 222.019L231.57 227.876Z" fill="#313131"/>
<path d="M191.044 192.308L226.074 192.647L225.793 221.56L190.764 221.22L191.044 192.308Z" fill="#FFA620"/>
<path d="M190.763 221.623L225.79 221.963C225.843 221.964 225.895 221.954 225.945 221.934C225.994 221.915 226.039 221.886 226.077 221.848C226.115 221.811 226.145 221.767 226.165 221.718C226.186 221.669 226.196 221.617 226.196 221.564L226.477 192.648C226.478 192.595 226.468 192.543 226.448 192.493C226.429 192.444 226.4 192.399 226.363 192.361C226.325 192.323 226.281 192.293 226.232 192.273C226.183 192.252 226.131 192.242 226.078 192.241L191.051 191.902C190.944 191.901 190.841 191.942 190.765 192.017C190.689 192.092 190.645 192.194 190.644 192.301L190.364 221.216C190.363 221.323 190.404 221.426 190.479 221.502C190.554 221.579 190.656 221.622 190.763 221.623ZM225.395 221.153L191.164 220.821L191.437 192.712L225.667 193.043L225.395 221.153Z" fill="#313131"/>
<path d="M216.053 210.196L221.081 210.245C221.134 210.246 221.187 210.236 221.236 210.217C221.285 210.197 221.33 210.168 221.368 210.131C221.406 210.093 221.436 210.049 221.456 210C221.477 209.951 221.488 209.899 221.488 209.846L221.536 204.818C221.537 204.711 221.496 204.608 221.421 204.532C221.346 204.455 221.244 204.412 221.137 204.411L216.109 204.362C216.002 204.361 215.899 204.402 215.823 204.477C215.747 204.552 215.703 204.654 215.702 204.761L215.654 209.789C215.653 209.842 215.662 209.895 215.682 209.944C215.702 209.994 215.731 210.038 215.768 210.076C215.805 210.114 215.849 210.144 215.898 210.165C215.947 210.185 216 210.196 216.053 210.196ZM220.686 209.435L216.463 209.394L216.504 205.172L220.727 205.213L220.686 209.435Z" fill="#313131"/>
<path d="M205.877 210.097L210.905 210.146C210.958 210.147 211.011 210.138 211.06 210.118C211.109 210.098 211.154 210.069 211.192 210.032C211.23 209.995 211.26 209.951 211.281 209.902C211.301 209.853 211.312 209.8 211.312 209.747L211.361 204.719C211.362 204.612 211.32 204.509 211.245 204.433C211.171 204.357 211.068 204.313 210.962 204.312L205.933 204.263C205.88 204.263 205.828 204.272 205.778 204.292C205.729 204.311 205.684 204.341 205.646 204.378C205.609 204.415 205.578 204.459 205.558 204.508C205.537 204.557 205.527 204.609 205.527 204.662L205.478 209.691C205.477 209.744 205.486 209.796 205.506 209.846C205.526 209.895 205.555 209.94 205.592 209.978C205.629 210.016 205.674 210.046 205.722 210.066C205.771 210.087 205.824 210.097 205.877 210.097ZM210.51 209.337L206.288 209.296L206.328 205.073L210.551 205.114L210.51 209.337Z" fill="#313131"/>
<path d="M195.698 209.999L200.726 210.048C200.779 210.048 200.832 210.039 200.881 210.019C200.93 210 200.975 209.97 201.013 209.933C201.051 209.896 201.081 209.852 201.102 209.803C201.122 209.754 201.133 209.702 201.133 209.649L201.182 204.62C201.183 204.513 201.141 204.411 201.066 204.334C200.992 204.258 200.889 204.215 200.783 204.214L195.754 204.165C195.648 204.164 195.545 204.205 195.468 204.28C195.392 204.355 195.349 204.457 195.348 204.564L195.299 209.592C195.298 209.645 195.308 209.698 195.327 209.747C195.347 209.796 195.376 209.841 195.413 209.879C195.45 209.917 195.495 209.947 195.543 209.967C195.592 209.988 195.645 209.999 195.698 209.999ZM200.331 209.238L196.112 209.197L196.153 204.975L200.375 205.015L200.331 209.238Z" fill="#313131"/>
<path d="M190.827 214.977L225.854 215.316C225.961 215.317 226.064 215.276 226.14 215.201C226.216 215.126 226.26 215.024 226.261 214.917C226.262 214.811 226.22 214.708 226.145 214.631C226.071 214.555 225.969 214.512 225.862 214.511L190.835 214.171C190.728 214.17 190.625 214.211 190.549 214.286C190.473 214.361 190.429 214.463 190.428 214.57C190.427 214.677 190.469 214.78 190.543 214.856C190.618 214.932 190.72 214.976 190.827 214.977Z" fill="#313131"/>
<path d="M190.977 199.544L226.004 199.884C226.11 199.885 226.213 199.843 226.29 199.768C226.366 199.694 226.409 199.592 226.41 199.485C226.411 199.378 226.37 199.275 226.295 199.199C226.22 199.122 226.118 199.079 226.011 199.078L190.985 198.738C190.878 198.737 190.775 198.779 190.699 198.854C190.622 198.928 190.579 199.03 190.578 199.137C190.577 199.244 190.618 199.347 190.693 199.423C190.768 199.5 190.87 199.543 190.977 199.544Z" fill="#313131"/>
<path d="M234.122 138.19C231.441 138.164 229.289 135.97 229.315 133.289C229.341 130.608 231.535 128.456 234.216 128.482C236.897 128.508 239.049 130.702 239.023 133.383C238.997 136.064 236.803 138.216 234.122 138.19Z" fill="white"/>
<path d="M189.024 108.351C186.343 108.325 184.191 106.131 184.217 103.45C184.243 100.769 186.437 98.6168 189.118 98.6428C191.799 98.6688 193.951 100.863 193.925 103.544C193.899 106.225 191.705 108.377 189.024 108.351Z" fill="white"/>
<path d="M157.714 147.304C155.033 147.278 152.88 145.083 152.906 142.403C152.932 139.722 155.127 137.569 157.808 137.595C160.489 137.621 162.641 139.816 162.615 142.497C162.589 145.178 160.394 147.33 157.714 147.304Z" fill="white"/>
<path d="M121.845 158.722C119.164 158.696 117.012 156.502 117.038 153.821C117.064 151.14 119.258 148.988 121.939 149.014C124.62 149.04 126.772 151.234 126.746 153.915C126.72 156.596 124.526 158.748 121.845 158.722Z" fill="white"/>
<path d="M234.118 138.596C235.159 138.607 236.179 138.309 237.05 137.74C237.921 137.17 238.604 136.356 239.012 135.398C239.42 134.441 239.535 133.384 239.342 132.362C239.149 131.339 238.658 130.397 237.929 129.654C237.201 128.91 236.269 128.4 235.25 128.187C234.232 127.974 233.173 128.068 232.207 128.456C231.242 128.845 230.414 129.511 229.827 130.371C229.241 131.23 228.922 132.244 228.912 133.285C228.9 134.679 229.441 136.022 230.417 137.017C231.393 138.013 232.724 138.581 234.118 138.596ZM234.213 128.885C235.094 128.891 235.954 129.158 236.684 129.653C237.413 130.149 237.98 130.849 238.311 131.666C238.642 132.483 238.723 133.381 238.544 134.244C238.365 135.107 237.934 135.898 237.305 136.516C236.676 137.134 235.878 137.552 235.012 137.716C234.145 137.88 233.25 137.784 232.438 137.438C231.627 137.093 230.936 136.515 230.454 135.777C229.971 135.039 229.719 134.175 229.728 133.293C229.741 132.115 230.22 130.989 231.06 130.163C231.901 129.337 233.034 128.877 234.213 128.885Z" fill="#313131"/>
<path d="M189.027 108.754C190.067 108.765 191.088 108.466 191.959 107.897C192.83 107.328 193.513 106.513 193.921 105.555C194.329 104.598 194.443 103.541 194.25 102.518C194.057 101.496 193.565 100.553 192.837 99.8101C192.108 99.0671 191.175 98.557 190.156 98.3442C189.138 98.1315 188.079 98.2257 187.114 98.6149C186.148 99.0041 185.32 99.6709 184.734 100.531C184.148 101.391 183.83 102.405 183.821 103.446C183.809 104.84 184.35 106.181 185.326 107.176C186.302 108.171 187.633 108.739 189.027 108.754ZM189.121 99.0424C190.002 99.0503 190.861 99.3193 191.589 99.8155C192.318 100.312 192.882 101.013 193.212 101.83C193.542 102.647 193.622 103.544 193.442 104.406C193.262 105.269 192.83 106.059 192.201 106.676C191.573 107.293 190.775 107.71 189.909 107.874C189.043 108.038 188.148 107.941 187.337 107.596C186.526 107.251 185.836 106.673 185.353 105.936C184.871 105.199 184.618 104.335 184.627 103.454C184.639 102.273 185.119 101.146 185.962 100.319C186.804 99.4916 187.94 99.0326 189.121 99.0424Z" fill="#313131"/>
<path d="M157.703 147.7C158.744 147.711 159.764 147.413 160.635 146.844C161.506 146.274 162.189 145.46 162.597 144.502C163.005 143.545 163.12 142.488 162.927 141.466C162.734 140.443 162.243 139.501 161.514 138.758C160.786 138.014 159.853 137.504 158.835 137.291C157.816 137.078 156.758 137.171 155.792 137.56C154.827 137.949 153.999 138.615 153.412 139.475C152.826 140.334 152.507 141.348 152.497 142.389C152.485 143.783 153.027 145.125 154.003 146.12C154.979 147.116 156.309 147.684 157.703 147.7ZM157.797 137.989C158.679 137.997 159.538 138.266 160.266 138.762C160.994 139.258 161.559 139.96 161.889 140.777C162.219 141.594 162.298 142.491 162.118 143.354C161.938 144.216 161.506 145.006 160.877 145.623C160.248 146.241 159.449 146.657 158.583 146.821C157.717 146.984 156.822 146.887 156.011 146.541C155.201 146.196 154.511 145.618 154.028 144.88C153.546 144.142 153.294 143.278 153.303 142.397C153.319 141.218 153.8 140.094 154.643 139.27C155.485 138.446 156.619 137.989 157.797 137.998L157.797 137.989Z" fill="#313131"/>
<path d="M121.831 159.128C122.914 159.14 123.975 158.817 124.868 158.204C125.761 157.591 126.443 156.717 126.821 155.702C127.199 154.686 127.254 153.579 126.979 152.531C126.703 151.483 126.111 150.546 125.283 149.847C124.456 149.149 123.432 148.723 122.353 148.627C121.274 148.532 120.191 148.772 119.254 149.315C118.317 149.858 117.57 150.678 117.115 151.661C116.661 152.645 116.521 153.744 116.715 154.81C116.934 156.012 117.564 157.1 118.498 157.888C119.431 158.675 120.61 159.114 121.831 159.128ZM121.925 149.416C123.035 149.425 124.101 149.847 124.915 150.601C125.729 151.355 126.232 152.386 126.326 153.491C126.42 154.597 126.097 155.698 125.422 156.578C124.746 157.458 123.767 158.054 122.674 158.249C122.065 158.358 121.439 158.339 120.838 158.193C120.236 158.046 119.672 157.776 119.18 157.399C118.689 157.022 118.282 156.547 117.985 156.003C117.688 155.46 117.507 154.861 117.455 154.244C117.403 153.627 117.48 153.006 117.681 152.42C117.882 151.835 118.204 151.297 118.624 150.843C119.045 150.389 119.556 150.027 120.124 149.781C120.693 149.536 121.306 149.411 121.925 149.416Z" fill="#313131"/>
<path d="M234.148 135.496C234.576 135.5 234.995 135.378 235.353 135.145C235.71 134.911 235.991 134.577 236.159 134.184C236.327 133.791 236.374 133.357 236.295 132.937C236.216 132.517 236.014 132.13 235.716 131.825C235.417 131.52 235.034 131.31 234.616 131.222C234.197 131.135 233.763 131.173 233.366 131.333C232.97 131.492 232.63 131.766 232.389 132.118C232.148 132.471 232.017 132.888 232.013 133.315C232.007 133.887 232.229 134.438 232.63 134.847C233.03 135.256 233.576 135.489 234.148 135.496ZM234.182 131.985C234.45 131.987 234.712 132.069 234.934 132.22C235.155 132.37 235.327 132.583 235.428 132.832C235.528 133.08 235.553 133.353 235.498 133.615C235.443 133.878 235.312 134.118 235.12 134.306C234.929 134.493 234.686 134.62 234.423 134.67C234.16 134.719 233.887 134.69 233.641 134.584C233.394 134.479 233.185 134.303 233.038 134.078C232.892 133.854 232.816 133.591 232.819 133.323C232.827 132.968 232.975 132.63 233.23 132.383C233.485 132.136 233.827 131.999 234.182 132.002L234.182 131.985Z" fill="#313131"/>
<path d="M189.057 105.653C189.483 105.658 189.902 105.535 190.259 105.302C190.615 105.068 190.895 104.734 191.062 104.342C191.229 103.949 191.276 103.516 191.197 103.097C191.118 102.678 190.916 102.292 190.617 101.987C190.319 101.683 189.937 101.474 189.519 101.386C189.102 101.299 188.668 101.337 188.272 101.497C187.876 101.656 187.537 101.929 187.297 102.282C187.056 102.634 186.926 103.05 186.922 103.476C186.917 104.048 187.139 104.598 187.539 105.006C187.94 105.414 188.485 105.647 189.057 105.653ZM189.091 102.147C189.358 102.149 189.618 102.231 189.839 102.381C190.06 102.532 190.231 102.745 190.331 102.992C190.43 103.24 190.455 103.512 190.4 103.773C190.345 104.035 190.214 104.274 190.024 104.461C189.833 104.648 189.591 104.775 189.329 104.824C189.066 104.874 188.795 104.844 188.549 104.74C188.303 104.635 188.094 104.46 187.948 104.236C187.801 104.013 187.725 103.751 187.727 103.484C187.732 103.126 187.878 102.784 188.133 102.534C188.389 102.283 188.733 102.144 189.091 102.147Z" fill="#313131"/>
<path d="M157.733 144.609C158.161 144.614 158.58 144.492 158.938 144.258C159.295 144.025 159.576 143.69 159.744 143.297C159.911 142.904 159.959 142.47 159.88 142.051C159.801 141.631 159.599 141.244 159.3 140.938C159.002 140.633 158.619 140.423 158.201 140.336C157.782 140.248 157.348 140.286 156.951 140.446C156.555 140.605 156.215 140.879 155.974 141.232C155.733 141.585 155.602 142.001 155.598 142.428C155.592 143.001 155.814 143.552 156.215 143.96C156.615 144.369 157.161 144.602 157.733 144.609ZM157.767 141.099C158.035 141.101 158.297 141.182 158.518 141.333C158.74 141.484 158.912 141.697 159.013 141.945C159.113 142.194 159.137 142.466 159.083 142.729C159.028 142.991 158.897 143.231 158.705 143.419C158.514 143.607 158.271 143.733 158.008 143.783C157.744 143.833 157.472 143.803 157.226 143.698C156.979 143.592 156.77 143.416 156.623 143.192C156.477 142.967 156.401 142.704 156.404 142.436C156.408 142.078 156.554 141.737 156.809 141.486C157.065 141.235 157.409 141.096 157.767 141.099Z" fill="#313131"/>
<path d="M121.871 156.027C122.298 156.032 122.717 155.91 123.075 155.676C123.433 155.443 123.713 155.109 123.881 154.716C124.049 154.323 124.096 153.889 124.017 153.469C123.938 153.049 123.737 152.662 123.438 152.356C123.139 152.051 122.756 151.841 122.338 151.754C121.92 151.666 121.485 151.705 121.088 151.864C120.692 152.024 120.352 152.297 120.111 152.65C119.87 153.003 119.739 153.419 119.735 153.847C119.73 154.419 119.952 154.969 120.353 155.378C120.753 155.786 121.299 156.02 121.871 156.027ZM121.905 152.517C122.173 152.519 122.434 152.6 122.656 152.751C122.877 152.902 123.049 153.115 123.15 153.363C123.25 153.612 123.275 153.885 123.22 154.147C123.165 154.409 123.034 154.65 122.843 154.837C122.651 155.025 122.409 155.152 122.145 155.201C121.882 155.251 121.61 155.221 121.363 155.116C121.117 155.011 120.907 154.835 120.76 154.61C120.614 154.385 120.538 154.122 120.541 153.854C120.542 153.677 120.579 153.501 120.648 153.337C120.717 153.173 120.818 153.025 120.944 152.9C121.071 152.775 121.221 152.677 121.386 152.61C121.551 152.543 121.727 152.509 121.905 152.511L121.905 152.517Z" fill="#313131"/>
<path d="M119.921 161.914L124.641 161.376L126.449 177.258L121.729 177.796L119.921 161.914Z" fill="white"/>
<path d="M121.707 178.19L121.756 178.191L126.467 177.653C126.573 177.64 126.67 177.585 126.736 177.502C126.803 177.418 126.834 177.312 126.823 177.205L125.014 161.322C125.008 161.269 124.992 161.218 124.966 161.172C124.941 161.126 124.906 161.085 124.865 161.053C124.824 161.019 124.776 160.995 124.725 160.981C124.675 160.966 124.621 160.962 124.569 160.969L119.854 161.517C119.748 161.53 119.652 161.584 119.586 161.668C119.52 161.752 119.49 161.858 119.502 161.964L121.308 177.835C121.319 177.933 121.367 178.023 121.44 178.089C121.514 178.154 121.609 178.19 121.707 178.19ZM125.988 176.897L122.067 177.343L120.35 162.259L124.271 161.814L125.988 176.897Z" fill="#313131"/>
<path d="M125.979 194.778L126.027 194.779C126.133 194.767 126.23 194.713 126.297 194.63C126.364 194.547 126.395 194.44 126.383 194.334L124.541 177.49C124.528 177.384 124.475 177.287 124.392 177.221C124.308 177.154 124.202 177.123 124.096 177.134C124.044 177.139 123.993 177.155 123.946 177.181C123.9 177.206 123.859 177.24 123.826 177.282C123.792 177.323 123.768 177.371 123.753 177.422C123.739 177.473 123.735 177.526 123.741 177.579L125.583 194.423C125.594 194.52 125.641 194.61 125.714 194.675C125.787 194.741 125.881 194.777 125.979 194.778Z" fill="#313131"/>
<path d="M120.165 164.64L120.211 164.64L124.941 164.167C125.047 164.156 125.145 164.104 125.213 164.021C125.28 163.937 125.312 163.831 125.301 163.724C125.29 163.618 125.238 163.52 125.155 163.452C125.071 163.385 124.965 163.353 124.858 163.364L120.128 163.84C120.027 163.852 119.934 163.902 119.868 163.98C119.802 164.057 119.768 164.157 119.772 164.259C119.777 164.361 119.82 164.457 119.893 164.529C119.966 164.6 120.063 164.641 120.165 164.643L120.165 164.64Z" fill="#313131"/>
<path d="M215.583 191.453L215.572 192.546L201.548 192.41L201.643 191.318L215.583 191.453Z" fill="#313131"/>
<path d="M167.302 183.075L170.249 201.666L168.907 201.366L167.302 183.075Z" fill="#313131"/>
<path d="M90.0608 182.047L86.7536 200.578L88.1017 200.304L90.0608 182.047Z" fill="#313131"/>
</svg>
